<?xml version="1.0" standalone="no"?>
<!DOCTYPE svg PUBLIC "-//W3C//DTD SVG 1.1//EN"
  "http://www.w3.org/Graphics/SVG/1.1/DTD/svg11.dtd">
<svg version="1.1" xmlns="http://www.w3.org/2000/svg" xmlns:xlink="http://www.w3.org/1999/xlink" width="3840" height="2160" viewBox="-2931.4444444444443 -1445 8824.888888888889 4964" id="ccdiagram"><filter id="grayscale"><feColorMatrix type="saturate" values="0"></feColorMatrix></filter><filter id="highlight"><feColorMatrix type="matrix" color-interpolation-filters="sRGB" values="0.20338 0 0 0 0
                0 0.58474 0 0 0
                0 0 0.97033 0 0
                0 0 0 1 0"></feColorMatrix></filter><defs><style type="text/css">@import url('https://fonts.googleapis.com/css?family=Open+Sans:400,700|Inconsolata:400');</style></defs><g><rect x="-2931.4444444444443" y="-1445" width="8824.888888888889" height="4964" fill="#ffffff" id="interactionLayer"></rect><g pointer-events="auto"><g><g><g><polygon points="1728 2042, 1920 2153, 1920 2190, 1536 2412, 1472 2412, 1280 2301, 1280 2264, 1664 2042" fill="#000000" opacity="0.3"></polygon><polygon points="1728 2035, 1920 2146, 1920 2183, 1536 2405, 1472 2405, 1280 2294, 1280 2257, 1664 2035" fill="#d32f2f" stroke-width="0" stroke="#d32f2f"></polygon><polygon points="1696 2054, 1888 2165, 1504 2387, 1312 2276" fill="#d32f2f"></polygon></g></g></g><g><g><g><polygon points="1648 2551, 1792 2634, 1792 2671, 1264 2977, 1200 2977, 1056 2893, 1056 2856, 1584 2551" fill="#000000" opacity="0.3"></polygon><polygon points="1648 2544, 1792 2627, 1792 2664, 1264 2969, 1200 2969, 1056 2886, 1056 2849, 1584 2544" fill="#d7e5e1" stroke-width="0" stroke="#d7e5e1"></polygon><polygon points="1616 2562, 1760 2646, 1232 2951, 1088 2868" fill="#d7e5e1"></polygon></g></g></g><g><g><g><polygon points="1888 2690, 2032 2773, 2032 2810, 1504 3115, 1440 3115, 1296 3032, 1296 2995, 1824 2690" fill="#000000" opacity="0.3"></polygon><polygon points="1888 2683, 2032 2766, 2032 2803, 1504 3108, 1440 3108, 1296 3025, 1296 2988, 1824 2683" fill="#d7e5e1" stroke-width="0" stroke="#d7e5e1"></polygon><polygon points="1856 2701, 2000 2784, 1472 3090, 1328 3006" fill="#d7e5e1"></polygon></g></g></g><g><g><g><polygon points="2256 2755, 2400 2838, 2400 2875, 1744 3254, 1680 3254, 1536 3171, 1536 3134, 2192 2755" fill="#000000" opacity="0.3"></polygon><polygon points="2256 2747, 2400 2831, 2400 2868, 1744 3247, 1680 3247, 1536 3164, 1536 3127, 2192 2747" fill="#d7e5e1" stroke-width="0" stroke="#d7e5e1"></polygon><polygon points="2224 2766, 2368 2849, 1712 3228, 1568 3145" fill="#d7e5e1"></polygon></g></g></g></g><g pointer-events="auto"><g></g><g></g></g><g pointer-events="auto"><g><g id="sg-08a928e203627a73a"><g><g><polygon points="-480 666, -96 444, -480 222, -864 444" stroke="#d32f2f" stroke-width="8" fill="none"></polygon></g><g><polygon points="-480 222, -512 204, -736 333, -736 370" stroke="#d32f2f" stroke-width="8" fill="#d32f2f"></polygon><text font-family="Inconsolata" font-size="20pt" font-weight="bold" fill="#ffffff" transform="translate(-527 239) matrix(0.707 -0.409 0.707 0.409 0 0)" text-anchor="end">sg_natgateway-server</text><g transform="translate(-512 213) matrix(0.707 0.409 -0.707 0.409 0 0)"><svg width="23" height="32" style="fill: rgb(255, 255, 255);"><svg xmlns="http://www.w3.org/2000/svg" width="23" height="32" viewBox="0 0 23 32"><path d="M19.429 17.143V5.714h-8v20.304c.911-.482 2.375-1.321 3.804-2.446 1.911-1.5 4.196-3.839 4.196-6.429zm3.428-13.714v13.714c0 7.518-10.518 12.268-10.964 12.464a1.049 1.049 0 0 1-.928 0C10.519 29.411.001 24.661.001 17.143V3.429c0-.625.518-1.143 1.143-1.143h20.571c.625 0 1.143.518 1.143 1.143z"></path></svg></svg></g></g></g></g></g><g><g id="b1a44bea-82f3-4b4d-a1af-4f83f156e054"><g><g><polygon points="1440 1665, 3552 444, 1440 -777, -672 444" stroke="#ff5722" stroke-width="8" fill="none"></polygon></g><g><polygon points="1440 -777, 1408 -795, 1184 -666, 1184 -629" stroke="#ff5722" stroke-width="8" fill="#ff5722"></polygon><text font-family="Inconsolata" font-size="20pt" font-weight="bold" fill="#ffffff" transform="translate(1393 -760) matrix(0.707 -0.409 0.707 0.409 0 0)" text-anchor="end">sg_default</text><g transform="translate(1408 -786) matrix(0.707 0.409 -0.707 0.409 0 0)"><svg width="23" height="32" style="fill: rgb(255, 255, 255);"><svg xmlns="http://www.w3.org/2000/svg" width="23" height="32" viewBox="0 0 23 32"><path d="M19.429 17.143V5.714h-8v20.304c.911-.482 2.375-1.321 3.804-2.446 1.911-1.5 4.196-3.839 4.196-6.429zm3.428-13.714v13.714c0 7.518-10.518 12.268-10.964 12.464a1.049 1.049 0 0 1-.928 0C10.519 29.411.001 24.661.001 17.143V3.429c0-.625.518-1.143 1.143-1.143h20.571c.625 0 1.143.518 1.143 1.143z"></path></svg></svg></g></g></g></g></g><g><g id="280dbb48-97d1-4c42-a1a6-2a5efbb8c496"><g><g><polygon points="480 1147, 1696 444, 1440 296, 224 999" stroke="#8bc34a" stroke-width="8" fill="none"></polygon></g><g><polygon points="1440 296, 1408 278, 1184 407, 1184 444" stroke="#8bc34a" stroke-width="8" fill="#8bc34a"></polygon><text font-family="Inconsolata" font-size="20pt" font-weight="bold" fill="#ffffff" transform="translate(1393 313) matrix(0.707 -0.409 0.707 0.409 0 0)" text-anchor="end">sg_public</text><g transform="translate(1408 287) matrix(0.707 0.409 -0.707 0.409 0 0)"><svg width="23" height="32" style="fill: rgb(255, 255, 255);"><svg xmlns="http://www.w3.org/2000/svg" width="23" height="32" viewBox="0 0 23 32"><path d="M19.429 17.143V5.714h-8v20.304c.911-.482 2.375-1.321 3.804-2.446 1.911-1.5 4.196-3.839 4.196-6.429zm3.428-13.714v13.714c0 7.518-10.518 12.268-10.964 12.464a1.049 1.049 0 0 1-.928 0C10.519 29.411.001 24.661.001 17.143V3.429c0-.625.518-1.143 1.143-1.143h20.571c.625 0 1.143.518 1.143 1.143z"></path></svg></svg></g></g></g></g></g></g><g></g><g pointer-events="auto"><g><g id="vpc-0578d0d2864cabb24"><g><g><polygon points="1712 3487, 5696 1184, 1250 -1386, -2734 917" stroke="#9c27b0" stroke-width="8" fill="none"></polygon></g><g><polygon points="1250 -1386, 1218 -1405, 994 -1275, 994 -1238" stroke="#9c27b0" stroke-width="8" fill="#9c27b0"></polygon><text font-family="Inconsolata" font-size="20pt" font-weight="bold" fill="#ffffff" transform="translate(1210 -1374) matrix(0.707 -0.409 0.707 0.409 0 0)" text-anchor="end">vpc_a</text><g transform="translate(1218 -1400) matrix(0.707 0.409 -0.707 0.409 0 0)"><svg width="34" height="32" style="fill: rgb(255, 255, 255);"><svg xmlns="http://www.w3.org/2000/svg" width="34" height="32" viewBox="0 0 34 32"><path d="M34.286 20.571a6.858 6.858 0 0 1-6.857 6.857H8c-4.411 0-8-3.589-8-8a7.993 7.993 0 0 1 4.607-7.232c-.018-.25-.036-.518-.036-.768a9.137 9.137 0 0 1 9.143-9.143c3.821 0 7.089 2.339 8.464 5.679a4.439 4.439 0 0 1 2.964-1.107 4.58 4.58 0 0 1 4.571 4.571 4.49 4.49 0 0 1-.732 2.464c3.036.714 5.304 3.429 5.304 6.679z"></path></svg></svg></g></g></g></g></g></g><g></g><g pointer-events="auto"><g><g id="subnet-0dc5fb2a46388a942"><g><g><polygon transform="translate(-480,74) matrix(-0.707 -0.409 0.707 -0.409 0 0)" points="-859.275 -904.5, -904.5 -859.275, -904.5 -45.225, -859.275 0, 0 0, 0 -859.275, -45.225 -904.5" stroke-width="11.2" stroke="#607d8b" stroke-dasharray="16" fill="none"></polygon></g><g><polygon points="-480 74, -512 56, -736 185, -736 222" stroke="#607d8b" stroke-width="8" fill="#607d8b"></polygon><text font-family="Inconsolata" font-size="20pt" font-weight="bold" fill="#ffffff" transform="translate(-524 89) matrix(0.707 -0.409 0.707 0.409 0 0)" text-anchor="end">subnet_generic-az_a</text><g transform="translate(-512 63) matrix(0.707 0.409 -0.707 0.409 0 0)"><svg width="27" height="32" style="fill: rgb(255, 255, 255);"><svg xmlns="http://www.w3.org/2000/svg" width="27" height="32" viewBox="0 0 27 32"><path d="M13.714 2.286c7.571 0 13.714 6.143 13.714 13.714s-6.143 13.714-13.714 13.714S0 23.571 0 16 6.143 2.286 13.714 2.286zm4.893 9.303c-.143.107-.232.304-.411.339.089-.018.179-.339.232-.411.107-.125.25-.196.393-.268.304-.125.607-.161.929-.214.304-.071.679-.071.911.196-.054-.054.375-.429.429-.446.161-.089.429-.054.536-.214.036-.054.036-.393.036-.393-.304.036-.411-.25-.429-.5 0 .018-.036.071-.107.143.018-.268-.321-.071-.446-.107-.411-.107-.357-.393-.482-.696-.071-.161-.268-.214-.339-.375-.071-.107-.107-.339-.268-.357-.107-.018-.304.375-.339.357-.161-.089-.232.036-.357.107-.107.071-.196.036-.304.089.321-.107-.143-.286-.304-.25.25-.071.125-.339-.018-.464h.089c-.036-.161-.536-.304-.696-.411s-1.018-.286-1.196-.179c-.214.125.054.482.054.661.018.214-.214.268-.214.446 0 .304.571.25.429.661-.089.25-.429.304-.571.5-.143.179.018.5.161.625.143.107-.25.286-.304.321-.304.143-.536-.304-.607-.571-.054-.196-.071-.429-.286-.536-.107-.036-.446-.089-.518.018-.107-.268-.482-.375-.732-.464-.357-.125-.661-.125-1.036-.071.125-.018-.036-.571-.339-.482.089-.179.054-.375.089-.554.036-.143.107-.286.214-.411.036-.071.429-.482.304-.5.304.036.643.054.893-.196.161-.161.232-.429.393-.607.232-.268.518.071.768.089.357.018.339-.375.143-.554.232.018.036-.411-.089-.464-.161-.054-.768.107-.446.232-.071-.036-.5.857-.75.411-.071-.089-.107-.464-.268-.482-.143 0-.232.161-.286.268.089-.232-.5-.393-.625-.411.268-.179.054-.375-.143-.482-.143-.089-.589-.161-.714-.018-.339.411.357.464.536.571.054.036.268.161.143.25-.107.054-.429.143-.464.214-.107.161.125.339-.036.5-.161-.161-.161-.429-.286-.607.161.196-.643.089-.625.089-.268 0-.696.179-.893-.089-.036-.071-.036-.482.071-.393-.161-.125-.268-.25-.375-.321-.589.196-1.143.446-1.679.732a.302.302 0 0 0 .214-.018c.143-.054.268-.143.411-.214.179-.071.554-.286.75-.125.018-.036.071-.071.089-.089.125.143.25.286.357.446-.143-.071-.375-.036-.536-.018-.125.036-.339.071-.393.214.054.089.125.232.089.321-.232-.161-.411-.429-.732-.464-.143 0-.286 0-.393.018a11.598 11.598 0 0 0-4.196 3.964.506.506 0 0 0 .214.143c.179.054 0 .571.339.304.107.089.125.214.054.339.018-.018.732.446.786.482.125.107.321.232.375.375.036.125-.071.268-.179.321-.018-.036-.286-.304-.321-.232-.054.089 0 .571.196.554-.286.018-.161 1.125-.232 1.339 0 .018.036.018.036.018-.054.214.125 1.054.482.964-.232.054.411.875.5.929.232.161.5.268.661.5.179.25.179.625.429.821-.071.214.375.464.357.768-.036.018-.054.018-.089.036.089.25.429.25.554.482.071.143 0 .482.232.411.036-.393-.232-.786-.429-1.107-.107-.179-.214-.339-.304-.518-.089-.161-.107-.357-.179-.536.071.018.464.161.429.214-.143.357.571.982.768 1.214.054.054.464.589.25.589.232 0 .554.357.661.536.161.268.125.607.232.893.107.357.607.518.893.679.25.125.464.304.714.393.375.143.464.018.786-.036.464-.071.518.446.893.643.232.125.732.304.982.196-.107.036.375.768.411.821.161.214.464.321.643.536a.283.283 0 0 0 .125-.161c-.071.196.268.571.446.536.196-.036.25-.429.25-.571-.357.179-.679.036-.875-.321-.036-.089-.321-.589-.071-.589.339 0 .107-.268.071-.518s-.286-.411-.411-.625c-.107.214-.464.161-.571-.018 0 .054-.054.143-.054.214-.089 0-.179.018-.268-.018.036-.214.054-.482.107-.714.089-.321.679-.946-.089-.911-.268.018-.375.125-.464.357-.089.214-.054.411-.304.518-.161.071-.696.036-.857-.054-.339-.196-.571-.821-.571-1.179-.018-.482.232-.911 0-1.357.107-.089.214-.268.339-.357.107-.071.232.054.286-.161-.054-.036-.125-.107-.143-.107.268.125.768-.179 1 0 .143.107.304.143.393-.036.018-.054-.125-.268-.054-.411.054.304.25.357.518.161.107.107.393.071.589.179.196.125.232.321.464.054.143.214.161.214.214.429.054.196.161.696.339.786.375.232.286-.393.25-.607-.018-.018-.018-.607-.036-.607-.571-.125-.357-.571-.036-.875.054-.036.464-.179.643-.321.161-.143.357-.393.268-.625.089 0 .161-.071.196-.161-.054-.018-.268-.196-.304-.179.125-.071.107-.179.036-.286.179-.107.089-.304.268-.375.196.268.589-.036.393-.25.179-.25.589-.125.696-.357.268.071.071-.268.214-.464.125-.161.339-.161.5-.25 0 .018.446-.25.304-.268.304.036.911-.286.446-.554.071-.161-.161-.232-.321-.268.125-.036.286.036.393-.036.232-.161.071-.232-.125-.286-.25-.071-.571.089-.768.214zM15.696 27.25a11.341 11.341 0 0 0 6.268-3.375c-.107-.107-.304-.071-.446-.143-.143-.054-.25-.107-.429-.143.036-.357-.357-.482-.607-.661-.232-.179-.375-.375-.714-.304-.036.018-.393.143-.321.214-.232-.196-.339-.304-.643-.393-.286-.089-.482-.446-.768-.125-.143.143-.071.357-.143.5-.232-.196.214-.429.036-.643-.214-.25-.589.161-.768.268-.107.089-.232.125-.304.232-.089.125-.125.286-.196.411-.054-.143-.357-.107-.375-.214.071.429.071.875.161 1.304.054.25 0 .661-.214.857s-.482.411-.518.714c-.036.214.018.411.214.464.018.268-.286.464-.268.75 0 .018.018.196.036.286z"></path></svg></svg></g></g></g></g></g><g><g id="4d385f50-a2b5-44e6-87ac-82c8cf8e8ff4"><g><g><polygon transform="translate(3360,74) matrix(-0.707 -0.409 0.707 -0.409 0 0)" points="-859.275 -904.5, -904.5 -859.275, -904.5 -45.225, -859.275 0, 0 0, 0 -859.275, -45.225 -904.5" stroke-width="11.2" stroke="#e91e63" stroke-dasharray="16" fill="none"></polygon></g><g><polygon points="3360 74, 3328 56, 3104 185, 3104 222" stroke="#e91e63" stroke-width="8" fill="#e91e63"></polygon><text font-family="Inconsolata" font-size="20pt" font-weight="bold" fill="#ffffff" transform="translate(3316 89) matrix(0.707 -0.409 0.707 0.409 0 0)" text-anchor="end">subnet_private-az_c</text><g transform="translate(3328 63) matrix(0.707 0.409 -0.707 0.409 0 0)"><svg width="27" height="32" style="fill: rgb(255, 255, 255);"><svg xmlns="http://www.w3.org/2000/svg" width="27" height="32" viewBox="0 0 27 32"><path d="M13.714 2.286c7.571 0 13.714 6.143 13.714 13.714s-6.143 13.714-13.714 13.714S0 23.571 0 16 6.143 2.286 13.714 2.286zm4.893 9.303c-.143.107-.232.304-.411.339.089-.018.179-.339.232-.411.107-.125.25-.196.393-.268.304-.125.607-.161.929-.214.304-.071.679-.071.911.196-.054-.054.375-.429.429-.446.161-.089.429-.054.536-.214.036-.054.036-.393.036-.393-.304.036-.411-.25-.429-.5 0 .018-.036.071-.107.143.018-.268-.321-.071-.446-.107-.411-.107-.357-.393-.482-.696-.071-.161-.268-.214-.339-.375-.071-.107-.107-.339-.268-.357-.107-.018-.304.375-.339.357-.161-.089-.232.036-.357.107-.107.071-.196.036-.304.089.321-.107-.143-.286-.304-.25.25-.071.125-.339-.018-.464h.089c-.036-.161-.536-.304-.696-.411s-1.018-.286-1.196-.179c-.214.125.054.482.054.661.018.214-.214.268-.214.446 0 .304.571.25.429.661-.089.25-.429.304-.571.5-.143.179.018.5.161.625.143.107-.25.286-.304.321-.304.143-.536-.304-.607-.571-.054-.196-.071-.429-.286-.536-.107-.036-.446-.089-.518.018-.107-.268-.482-.375-.732-.464-.357-.125-.661-.125-1.036-.071.125-.018-.036-.571-.339-.482.089-.179.054-.375.089-.554.036-.143.107-.286.214-.411.036-.071.429-.482.304-.5.304.036.643.054.893-.196.161-.161.232-.429.393-.607.232-.268.518.071.768.089.357.018.339-.375.143-.554.232.018.036-.411-.089-.464-.161-.054-.768.107-.446.232-.071-.036-.5.857-.75.411-.071-.089-.107-.464-.268-.482-.143 0-.232.161-.286.268.089-.232-.5-.393-.625-.411.268-.179.054-.375-.143-.482-.143-.089-.589-.161-.714-.018-.339.411.357.464.536.571.054.036.268.161.143.25-.107.054-.429.143-.464.214-.107.161.125.339-.036.5-.161-.161-.161-.429-.286-.607.161.196-.643.089-.625.089-.268 0-.696.179-.893-.089-.036-.071-.036-.482.071-.393-.161-.125-.268-.25-.375-.321-.589.196-1.143.446-1.679.732a.302.302 0 0 0 .214-.018c.143-.054.268-.143.411-.214.179-.071.554-.286.75-.125.018-.036.071-.071.089-.089.125.143.25.286.357.446-.143-.071-.375-.036-.536-.018-.125.036-.339.071-.393.214.054.089.125.232.089.321-.232-.161-.411-.429-.732-.464-.143 0-.286 0-.393.018a11.598 11.598 0 0 0-4.196 3.964.506.506 0 0 0 .214.143c.179.054 0 .571.339.304.107.089.125.214.054.339.018-.018.732.446.786.482.125.107.321.232.375.375.036.125-.071.268-.179.321-.018-.036-.286-.304-.321-.232-.054.089 0 .571.196.554-.286.018-.161 1.125-.232 1.339 0 .018.036.018.036.018-.054.214.125 1.054.482.964-.232.054.411.875.5.929.232.161.5.268.661.5.179.25.179.625.429.821-.071.214.375.464.357.768-.036.018-.054.018-.089.036.089.25.429.25.554.482.071.143 0 .482.232.411.036-.393-.232-.786-.429-1.107-.107-.179-.214-.339-.304-.518-.089-.161-.107-.357-.179-.536.071.018.464.161.429.214-.143.357.571.982.768 1.214.054.054.464.589.25.589.232 0 .554.357.661.536.161.268.125.607.232.893.107.357.607.518.893.679.25.125.464.304.714.393.375.143.464.018.786-.036.464-.071.518.446.893.643.232.125.732.304.982.196-.107.036.375.768.411.821.161.214.464.321.643.536a.283.283 0 0 0 .125-.161c-.071.196.268.571.446.536.196-.036.25-.429.25-.571-.357.179-.679.036-.875-.321-.036-.089-.321-.589-.071-.589.339 0 .107-.268.071-.518s-.286-.411-.411-.625c-.107.214-.464.161-.571-.018 0 .054-.054.143-.054.214-.089 0-.179.018-.268-.018.036-.214.054-.482.107-.714.089-.321.679-.946-.089-.911-.268.018-.375.125-.464.357-.089.214-.054.411-.304.518-.161.071-.696.036-.857-.054-.339-.196-.571-.821-.571-1.179-.018-.482.232-.911 0-1.357.107-.089.214-.268.339-.357.107-.071.232.054.286-.161-.054-.036-.125-.107-.143-.107.268.125.768-.179 1 0 .143.107.304.143.393-.036.018-.054-.125-.268-.054-.411.054.304.25.357.518.161.107.107.393.071.589.179.196.125.232.321.464.054.143.214.161.214.214.429.054.196.161.696.339.786.375.232.286-.393.25-.607-.018-.018-.018-.607-.036-.607-.571-.125-.357-.571-.036-.875.054-.036.464-.179.643-.321.161-.143.357-.393.268-.625.089 0 .161-.071.196-.161-.054-.018-.268-.196-.304-.179.125-.071.107-.179.036-.286.179-.107.089-.304.268-.375.196.268.589-.036.393-.25.179-.25.589-.125.696-.357.268.071.071-.268.214-.464.125-.161.339-.161.5-.25 0 .018.446-.25.304-.268.304.036.911-.286.446-.554.071-.161-.161-.232-.321-.268.125-.036.286.036.393-.036.232-.161.071-.232-.125-.286-.25-.071-.571.089-.768.214zM15.696 27.25a11.341 11.341 0 0 0 6.268-3.375c-.107-.107-.304-.071-.446-.143-.143-.054-.25-.107-.429-.143.036-.357-.357-.482-.607-.661-.232-.179-.375-.375-.714-.304-.036.018-.393.143-.321.214-.232-.196-.339-.304-.643-.393-.286-.089-.482-.446-.768-.125-.143.143-.071.357-.143.5-.232-.196.214-.429.036-.643-.214-.25-.589.161-.768.268-.107.089-.232.125-.304.232-.089.125-.125.286-.196.411-.054-.143-.357-.107-.375-.214.071.429.071.875.161 1.304.054.25 0 .661-.214.857s-.482.411-.518.714c-.036.214.018.411.214.464.018.268-.286.464-.268.75 0 .018.018.196.036.286z"></path></svg></svg></g></g></g></g></g><g><g id="8b2c1fd0-22df-4324-be61-8bef7e266e35"><g><g><polygon transform="translate(1440,1184) matrix(-0.707 -0.409 0.707 -0.409 0 0)" points="-859.275 -904.5, -904.5 -859.275, -904.5 -45.225, -859.275 0, 0 0, 0 -859.275, -45.225 -904.5" stroke-width="11.2" stroke="#e91e63" stroke-dasharray="16" fill="none"></polygon></g><g><polygon points="1440 1184, 1408 1166, 1184 1295, 1184 1332" stroke="#e91e63" stroke-width="8" fill="#e91e63"></polygon><text font-family="Inconsolata" font-size="20pt" font-weight="bold" fill="#ffffff" transform="translate(1396 1199) matrix(0.707 -0.409 0.707 0.409 0 0)" text-anchor="end">subnet_private-az_a</text><g transform="translate(1408 1173) matrix(0.707 0.409 -0.707 0.409 0 0)"><svg width="27" height="32" style="fill: rgb(255, 255, 255);"><svg xmlns="http://www.w3.org/2000/svg" width="27" height="32" viewBox="0 0 27 32"><path d="M13.714 2.286c7.571 0 13.714 6.143 13.714 13.714s-6.143 13.714-13.714 13.714S0 23.571 0 16 6.143 2.286 13.714 2.286zm4.893 9.303c-.143.107-.232.304-.411.339.089-.018.179-.339.232-.411.107-.125.25-.196.393-.268.304-.125.607-.161.929-.214.304-.071.679-.071.911.196-.054-.054.375-.429.429-.446.161-.089.429-.054.536-.214.036-.054.036-.393.036-.393-.304.036-.411-.25-.429-.5 0 .018-.036.071-.107.143.018-.268-.321-.071-.446-.107-.411-.107-.357-.393-.482-.696-.071-.161-.268-.214-.339-.375-.071-.107-.107-.339-.268-.357-.107-.018-.304.375-.339.357-.161-.089-.232.036-.357.107-.107.071-.196.036-.304.089.321-.107-.143-.286-.304-.25.25-.071.125-.339-.018-.464h.089c-.036-.161-.536-.304-.696-.411s-1.018-.286-1.196-.179c-.214.125.054.482.054.661.018.214-.214.268-.214.446 0 .304.571.25.429.661-.089.25-.429.304-.571.5-.143.179.018.5.161.625.143.107-.25.286-.304.321-.304.143-.536-.304-.607-.571-.054-.196-.071-.429-.286-.536-.107-.036-.446-.089-.518.018-.107-.268-.482-.375-.732-.464-.357-.125-.661-.125-1.036-.071.125-.018-.036-.571-.339-.482.089-.179.054-.375.089-.554.036-.143.107-.286.214-.411.036-.071.429-.482.304-.5.304.036.643.054.893-.196.161-.161.232-.429.393-.607.232-.268.518.071.768.089.357.018.339-.375.143-.554.232.018.036-.411-.089-.464-.161-.054-.768.107-.446.232-.071-.036-.5.857-.75.411-.071-.089-.107-.464-.268-.482-.143 0-.232.161-.286.268.089-.232-.5-.393-.625-.411.268-.179.054-.375-.143-.482-.143-.089-.589-.161-.714-.018-.339.411.357.464.536.571.054.036.268.161.143.25-.107.054-.429.143-.464.214-.107.161.125.339-.036.5-.161-.161-.161-.429-.286-.607.161.196-.643.089-.625.089-.268 0-.696.179-.893-.089-.036-.071-.036-.482.071-.393-.161-.125-.268-.25-.375-.321-.589.196-1.143.446-1.679.732a.302.302 0 0 0 .214-.018c.143-.054.268-.143.411-.214.179-.071.554-.286.75-.125.018-.036.071-.071.089-.089.125.143.25.286.357.446-.143-.071-.375-.036-.536-.018-.125.036-.339.071-.393.214.054.089.125.232.089.321-.232-.161-.411-.429-.732-.464-.143 0-.286 0-.393.018a11.598 11.598 0 0 0-4.196 3.964.506.506 0 0 0 .214.143c.179.054 0 .571.339.304.107.089.125.214.054.339.018-.018.732.446.786.482.125.107.321.232.375.375.036.125-.071.268-.179.321-.018-.036-.286-.304-.321-.232-.054.089 0 .571.196.554-.286.018-.161 1.125-.232 1.339 0 .018.036.018.036.018-.054.214.125 1.054.482.964-.232.054.411.875.5.929.232.161.5.268.661.5.179.25.179.625.429.821-.071.214.375.464.357.768-.036.018-.054.018-.089.036.089.25.429.25.554.482.071.143 0 .482.232.411.036-.393-.232-.786-.429-1.107-.107-.179-.214-.339-.304-.518-.089-.161-.107-.357-.179-.536.071.018.464.161.429.214-.143.357.571.982.768 1.214.054.054.464.589.25.589.232 0 .554.357.661.536.161.268.125.607.232.893.107.357.607.518.893.679.25.125.464.304.714.393.375.143.464.018.786-.036.464-.071.518.446.893.643.232.125.732.304.982.196-.107.036.375.768.411.821.161.214.464.321.643.536a.283.283 0 0 0 .125-.161c-.071.196.268.571.446.536.196-.036.25-.429.25-.571-.357.179-.679.036-.875-.321-.036-.089-.321-.589-.071-.589.339 0 .107-.268.071-.518s-.286-.411-.411-.625c-.107.214-.464.161-.571-.018 0 .054-.054.143-.054.214-.089 0-.179.018-.268-.018.036-.214.054-.482.107-.714.089-.321.679-.946-.089-.911-.268.018-.375.125-.464.357-.089.214-.054.411-.304.518-.161.071-.696.036-.857-.054-.339-.196-.571-.821-.571-1.179-.018-.482.232-.911 0-1.357.107-.089.214-.268.339-.357.107-.071.232.054.286-.161-.054-.036-.125-.107-.143-.107.268.125.768-.179 1 0 .143.107.304.143.393-.036.018-.054-.125-.268-.054-.411.054.304.25.357.518.161.107.107.393.071.589.179.196.125.232.321.464.054.143.214.161.214.214.429.054.196.161.696.339.786.375.232.286-.393.25-.607-.018-.018-.018-.607-.036-.607-.571-.125-.357-.571-.036-.875.054-.036.464-.179.643-.321.161-.143.357-.393.268-.625.089 0 .161-.071.196-.161-.054-.018-.268-.196-.304-.179.125-.071.107-.179.036-.286.179-.107.089-.304.268-.375.196.268.589-.036.393-.25.179-.25.589-.125.696-.357.268.071.071-.268.214-.464.125-.161.339-.161.5-.25 0 .018.446-.25.304-.268.304.036.911-.286.446-.554.071-.161-.161-.232-.321-.268.125-.036.286.036.393-.036.232-.161.071-.232-.125-.286-.25-.071-.571.089-.768.214zM15.696 27.25a11.341 11.341 0 0 0 6.268-3.375c-.107-.107-.304-.071-.446-.143-.143-.054-.25-.107-.429-.143.036-.357-.357-.482-.607-.661-.232-.179-.375-.375-.714-.304-.036.018-.393.143-.321.214-.232-.196-.339-.304-.643-.393-.286-.089-.482-.446-.768-.125-.143.143-.071.357-.143.5-.232-.196.214-.429.036-.643-.214-.25-.589.161-.768.268-.107.089-.232.125-.304.232-.089.125-.125.286-.196.411-.054-.143-.357-.107-.375-.214.071.429.071.875.161 1.304.054.25 0 .661-.214.857s-.482.411-.518.714c-.036.214.018.411.214.464.018.268-.286.464-.268.75 0 .018.018.196.036.286z"></path></svg></svg></g></g></g></g></g><g><g id="8705c977-ba5c-4b99-b8f0-b5bdc5448d79"><g><g><polygon transform="translate(1440,74) matrix(-0.707 -0.409 0.707 -0.409 0 0)" points="-859.275 -904.5, -904.5 -859.275, -904.5 -45.225, -859.275 0, 0 0, 0 -859.275, -45.225 -904.5" stroke-width="11.2" stroke="#009688" stroke-dasharray="16" fill="none"></polygon></g><g><polygon points="1440 74, 1408 56, 1184 185, 1184 222" stroke="#009688" stroke-width="8" fill="#009688"></polygon><text font-family="Inconsolata" font-size="20pt" font-weight="bold" fill="#ffffff" transform="translate(1396 89) matrix(0.707 -0.409 0.707 0.409 0 0)" text-anchor="end">subnet_public-az_b</text><g transform="translate(1408 63) matrix(0.707 0.409 -0.707 0.409 0 0)"><svg width="27" height="32" style="fill: rgb(255, 255, 255);"><svg xmlns="http://www.w3.org/2000/svg" width="27" height="32" viewBox="0 0 27 32"><path d="M13.714 2.286c7.571 0 13.714 6.143 13.714 13.714s-6.143 13.714-13.714 13.714S0 23.571 0 16 6.143 2.286 13.714 2.286zm4.893 9.303c-.143.107-.232.304-.411.339.089-.018.179-.339.232-.411.107-.125.25-.196.393-.268.304-.125.607-.161.929-.214.304-.071.679-.071.911.196-.054-.054.375-.429.429-.446.161-.089.429-.054.536-.214.036-.054.036-.393.036-.393-.304.036-.411-.25-.429-.5 0 .018-.036.071-.107.143.018-.268-.321-.071-.446-.107-.411-.107-.357-.393-.482-.696-.071-.161-.268-.214-.339-.375-.071-.107-.107-.339-.268-.357-.107-.018-.304.375-.339.357-.161-.089-.232.036-.357.107-.107.071-.196.036-.304.089.321-.107-.143-.286-.304-.25.25-.071.125-.339-.018-.464h.089c-.036-.161-.536-.304-.696-.411s-1.018-.286-1.196-.179c-.214.125.054.482.054.661.018.214-.214.268-.214.446 0 .304.571.25.429.661-.089.25-.429.304-.571.5-.143.179.018.5.161.625.143.107-.25.286-.304.321-.304.143-.536-.304-.607-.571-.054-.196-.071-.429-.286-.536-.107-.036-.446-.089-.518.018-.107-.268-.482-.375-.732-.464-.357-.125-.661-.125-1.036-.071.125-.018-.036-.571-.339-.482.089-.179.054-.375.089-.554.036-.143.107-.286.214-.411.036-.071.429-.482.304-.5.304.036.643.054.893-.196.161-.161.232-.429.393-.607.232-.268.518.071.768.089.357.018.339-.375.143-.554.232.018.036-.411-.089-.464-.161-.054-.768.107-.446.232-.071-.036-.5.857-.75.411-.071-.089-.107-.464-.268-.482-.143 0-.232.161-.286.268.089-.232-.5-.393-.625-.411.268-.179.054-.375-.143-.482-.143-.089-.589-.161-.714-.018-.339.411.357.464.536.571.054.036.268.161.143.25-.107.054-.429.143-.464.214-.107.161.125.339-.036.5-.161-.161-.161-.429-.286-.607.161.196-.643.089-.625.089-.268 0-.696.179-.893-.089-.036-.071-.036-.482.071-.393-.161-.125-.268-.25-.375-.321-.589.196-1.143.446-1.679.732a.302.302 0 0 0 .214-.018c.143-.054.268-.143.411-.214.179-.071.554-.286.75-.125.018-.036.071-.071.089-.089.125.143.25.286.357.446-.143-.071-.375-.036-.536-.018-.125.036-.339.071-.393.214.054.089.125.232.089.321-.232-.161-.411-.429-.732-.464-.143 0-.286 0-.393.018a11.598 11.598 0 0 0-4.196 3.964.506.506 0 0 0 .214.143c.179.054 0 .571.339.304.107.089.125.214.054.339.018-.018.732.446.786.482.125.107.321.232.375.375.036.125-.071.268-.179.321-.018-.036-.286-.304-.321-.232-.054.089 0 .571.196.554-.286.018-.161 1.125-.232 1.339 0 .018.036.018.036.018-.054.214.125 1.054.482.964-.232.054.411.875.5.929.232.161.5.268.661.5.179.25.179.625.429.821-.071.214.375.464.357.768-.036.018-.054.018-.089.036.089.25.429.25.554.482.071.143 0 .482.232.411.036-.393-.232-.786-.429-1.107-.107-.179-.214-.339-.304-.518-.089-.161-.107-.357-.179-.536.071.018.464.161.429.214-.143.357.571.982.768 1.214.054.054.464.589.25.589.232 0 .554.357.661.536.161.268.125.607.232.893.107.357.607.518.893.679.25.125.464.304.714.393.375.143.464.018.786-.036.464-.071.518.446.893.643.232.125.732.304.982.196-.107.036.375.768.411.821.161.214.464.321.643.536a.283.283 0 0 0 .125-.161c-.071.196.268.571.446.536.196-.036.25-.429.25-.571-.357.179-.679.036-.875-.321-.036-.089-.321-.589-.071-.589.339 0 .107-.268.071-.518s-.286-.411-.411-.625c-.107.214-.464.161-.571-.018 0 .054-.054.143-.054.214-.089 0-.179.018-.268-.018.036-.214.054-.482.107-.714.089-.321.679-.946-.089-.911-.268.018-.375.125-.464.357-.089.214-.054.411-.304.518-.161.071-.696.036-.857-.054-.339-.196-.571-.821-.571-1.179-.018-.482.232-.911 0-1.357.107-.089.214-.268.339-.357.107-.071.232.054.286-.161-.054-.036-.125-.107-.143-.107.268.125.768-.179 1 0 .143.107.304.143.393-.036.018-.054-.125-.268-.054-.411.054.304.25.357.518.161.107.107.393.071.589.179.196.125.232.321.464.054.143.214.161.214.214.429.054.196.161.696.339.786.375.232.286-.393.25-.607-.018-.018-.018-.607-.036-.607-.571-.125-.357-.571-.036-.875.054-.036.464-.179.643-.321.161-.143.357-.393.268-.625.089 0 .161-.071.196-.161-.054-.018-.268-.196-.304-.179.125-.071.107-.179.036-.286.179-.107.089-.304.268-.375.196.268.589-.036.393-.25.179-.25.589-.125.696-.357.268.071.071-.268.214-.464.125-.161.339-.161.5-.25 0 .018.446-.25.304-.268.304.036.911-.286.446-.554.071-.161-.161-.232-.321-.268.125-.036.286.036.393-.036.232-.161.071-.232-.125-.286-.25-.071-.571.089-.768.214zM15.696 27.25a11.341 11.341 0 0 0 6.268-3.375c-.107-.107-.304-.071-.446-.143-.143-.054-.25-.107-.429-.143.036-.357-.357-.482-.607-.661-.232-.179-.375-.375-.714-.304-.036.018-.393.143-.321.214-.232-.196-.339-.304-.643-.393-.286-.089-.482-.446-.768-.125-.143.143-.071.357-.143.5-.232-.196.214-.429.036-.643-.214-.25-.589.161-.768.268-.107.089-.232.125-.304.232-.089.125-.125.286-.196.411-.054-.143-.357-.107-.375-.214.071.429.071.875.161 1.304.054.25 0 .661-.214.857s-.482.411-.518.714c-.036.214.018.411.214.464.018.268-.286.464-.268.75 0 .018.018.196.036.286z"></path></svg></svg></g></g></g></g></g><g><g id="6d053247-6eae-450e-aa98-24aa74c64c34"><g><g><polygon transform="translate(480,629) matrix(-0.707 -0.409 0.707 -0.409 0 0)" points="-859.275 -904.5, -904.5 -859.275, -904.5 -45.225, -859.275 0, 0 0, 0 -859.275, -45.225 -904.5" stroke-width="11.2" stroke="#009688" stroke-dasharray="16" fill="none"></polygon></g><g><polygon points="480 629, 448 611, 224 740, 224 777" stroke="#009688" stroke-width="8" fill="#009688"></polygon><text font-family="Inconsolata" font-size="20pt" font-weight="bold" fill="#ffffff" transform="translate(436 644) matrix(0.707 -0.409 0.707 0.409 0 0)" text-anchor="end">subnet_public-az_a</text><g transform="translate(448 618) matrix(0.707 0.409 -0.707 0.409 0 0)"><svg width="27" height="32" style="fill: rgb(255, 255, 255);"><svg xmlns="http://www.w3.org/2000/svg" width="27" height="32" viewBox="0 0 27 32"><path d="M13.714 2.286c7.571 0 13.714 6.143 13.714 13.714s-6.143 13.714-13.714 13.714S0 23.571 0 16 6.143 2.286 13.714 2.286zm4.893 9.303c-.143.107-.232.304-.411.339.089-.018.179-.339.232-.411.107-.125.25-.196.393-.268.304-.125.607-.161.929-.214.304-.071.679-.071.911.196-.054-.054.375-.429.429-.446.161-.089.429-.054.536-.214.036-.054.036-.393.036-.393-.304.036-.411-.25-.429-.5 0 .018-.036.071-.107.143.018-.268-.321-.071-.446-.107-.411-.107-.357-.393-.482-.696-.071-.161-.268-.214-.339-.375-.071-.107-.107-.339-.268-.357-.107-.018-.304.375-.339.357-.161-.089-.232.036-.357.107-.107.071-.196.036-.304.089.321-.107-.143-.286-.304-.25.25-.071.125-.339-.018-.464h.089c-.036-.161-.536-.304-.696-.411s-1.018-.286-1.196-.179c-.214.125.054.482.054.661.018.214-.214.268-.214.446 0 .304.571.25.429.661-.089.25-.429.304-.571.5-.143.179.018.5.161.625.143.107-.25.286-.304.321-.304.143-.536-.304-.607-.571-.054-.196-.071-.429-.286-.536-.107-.036-.446-.089-.518.018-.107-.268-.482-.375-.732-.464-.357-.125-.661-.125-1.036-.071.125-.018-.036-.571-.339-.482.089-.179.054-.375.089-.554.036-.143.107-.286.214-.411.036-.071.429-.482.304-.5.304.036.643.054.893-.196.161-.161.232-.429.393-.607.232-.268.518.071.768.089.357.018.339-.375.143-.554.232.018.036-.411-.089-.464-.161-.054-.768.107-.446.232-.071-.036-.5.857-.75.411-.071-.089-.107-.464-.268-.482-.143 0-.232.161-.286.268.089-.232-.5-.393-.625-.411.268-.179.054-.375-.143-.482-.143-.089-.589-.161-.714-.018-.339.411.357.464.536.571.054.036.268.161.143.25-.107.054-.429.143-.464.214-.107.161.125.339-.036.5-.161-.161-.161-.429-.286-.607.161.196-.643.089-.625.089-.268 0-.696.179-.893-.089-.036-.071-.036-.482.071-.393-.161-.125-.268-.25-.375-.321-.589.196-1.143.446-1.679.732a.302.302 0 0 0 .214-.018c.143-.054.268-.143.411-.214.179-.071.554-.286.75-.125.018-.036.071-.071.089-.089.125.143.25.286.357.446-.143-.071-.375-.036-.536-.018-.125.036-.339.071-.393.214.054.089.125.232.089.321-.232-.161-.411-.429-.732-.464-.143 0-.286 0-.393.018a11.598 11.598 0 0 0-4.196 3.964.506.506 0 0 0 .214.143c.179.054 0 .571.339.304.107.089.125.214.054.339.018-.018.732.446.786.482.125.107.321.232.375.375.036.125-.071.268-.179.321-.018-.036-.286-.304-.321-.232-.054.089 0 .571.196.554-.286.018-.161 1.125-.232 1.339 0 .018.036.018.036.018-.054.214.125 1.054.482.964-.232.054.411.875.5.929.232.161.5.268.661.5.179.25.179.625.429.821-.071.214.375.464.357.768-.036.018-.054.018-.089.036.089.25.429.25.554.482.071.143 0 .482.232.411.036-.393-.232-.786-.429-1.107-.107-.179-.214-.339-.304-.518-.089-.161-.107-.357-.179-.536.071.018.464.161.429.214-.143.357.571.982.768 1.214.054.054.464.589.25.589.232 0 .554.357.661.536.161.268.125.607.232.893.107.357.607.518.893.679.25.125.464.304.714.393.375.143.464.018.786-.036.464-.071.518.446.893.643.232.125.732.304.982.196-.107.036.375.768.411.821.161.214.464.321.643.536a.283.283 0 0 0 .125-.161c-.071.196.268.571.446.536.196-.036.25-.429.25-.571-.357.179-.679.036-.875-.321-.036-.089-.321-.589-.071-.589.339 0 .107-.268.071-.518s-.286-.411-.411-.625c-.107.214-.464.161-.571-.018 0 .054-.054.143-.054.214-.089 0-.179.018-.268-.018.036-.214.054-.482.107-.714.089-.321.679-.946-.089-.911-.268.018-.375.125-.464.357-.089.214-.054.411-.304.518-.161.071-.696.036-.857-.054-.339-.196-.571-.821-.571-1.179-.018-.482.232-.911 0-1.357.107-.089.214-.268.339-.357.107-.071.232.054.286-.161-.054-.036-.125-.107-.143-.107.268.125.768-.179 1 0 .143.107.304.143.393-.036.018-.054-.125-.268-.054-.411.054.304.25.357.518.161.107.107.393.071.589.179.196.125.232.321.464.054.143.214.161.214.214.429.054.196.161.696.339.786.375.232.286-.393.25-.607-.018-.018-.018-.607-.036-.607-.571-.125-.357-.571-.036-.875.054-.036.464-.179.643-.321.161-.143.357-.393.268-.625.089 0 .161-.071.196-.161-.054-.018-.268-.196-.304-.179.125-.071.107-.179.036-.286.179-.107.089-.304.268-.375.196.268.589-.036.393-.25.179-.25.589-.125.696-.357.268.071.071-.268.214-.464.125-.161.339-.161.5-.25 0 .018.446-.25.304-.268.304.036.911-.286.446-.554.071-.161-.161-.232-.321-.268.125-.036.286.036.393-.036.232-.161.071-.232-.125-.286-.25-.071-.571.089-.768.214zM15.696 27.25a11.341 11.341 0 0 0 6.268-3.375c-.107-.107-.304-.071-.446-.143-.143-.054-.25-.107-.429-.143.036-.357-.357-.482-.607-.661-.232-.179-.375-.375-.714-.304-.036.018-.393.143-.321.214-.232-.196-.339-.304-.643-.393-.286-.089-.482-.446-.768-.125-.143.143-.071.357-.143.5-.232-.196.214-.429.036-.643-.214-.25-.589.161-.768.268-.107.089-.232.125-.304.232-.089.125-.125.286-.196.411-.054-.143-.357-.107-.375-.214.071.429.071.875.161 1.304.054.25 0 .661-.214.857s-.482.411-.518.714c-.036.214.018.411.214.464.018.268-.286.464-.268.75 0 .018.018.196.036.286z"></path></svg></svg></g></g></g></g></g><g><g id="65192870-f0f6-4c59-9f45-b4ebe113e124"><g><g><polygon transform="translate(2400,629) matrix(-0.707 -0.409 0.707 -0.409 0 0)" points="-859.275 -904.5, -904.5 -859.275, -904.5 -45.225, -859.275 0, 0 0, 0 -859.275, -45.225 -904.5" stroke-width="11.2" stroke="#e91e63" stroke-dasharray="16" fill="none"></polygon></g><g><polygon points="2400 629, 2368 611, 2144 740, 2144 777" stroke="#e91e63" stroke-width="8" fill="#e91e63"></polygon><text font-family="Inconsolata" font-size="20pt" font-weight="bold" fill="#ffffff" transform="translate(2356 644) matrix(0.707 -0.409 0.707 0.409 0 0)" text-anchor="end">subnet_private-az_b</text><g transform="translate(2368 618) matrix(0.707 0.409 -0.707 0.409 0 0)"><svg width="27" height="32" style="fill: rgb(255, 255, 255);"><svg xmlns="http://www.w3.org/2000/svg" width="27" height="32" viewBox="0 0 27 32"><path d="M13.714 2.286c7.571 0 13.714 6.143 13.714 13.714s-6.143 13.714-13.714 13.714S0 23.571 0 16 6.143 2.286 13.714 2.286zm4.893 9.303c-.143.107-.232.304-.411.339.089-.018.179-.339.232-.411.107-.125.25-.196.393-.268.304-.125.607-.161.929-.214.304-.071.679-.071.911.196-.054-.054.375-.429.429-.446.161-.089.429-.054.536-.214.036-.054.036-.393.036-.393-.304.036-.411-.25-.429-.5 0 .018-.036.071-.107.143.018-.268-.321-.071-.446-.107-.411-.107-.357-.393-.482-.696-.071-.161-.268-.214-.339-.375-.071-.107-.107-.339-.268-.357-.107-.018-.304.375-.339.357-.161-.089-.232.036-.357.107-.107.071-.196.036-.304.089.321-.107-.143-.286-.304-.25.25-.071.125-.339-.018-.464h.089c-.036-.161-.536-.304-.696-.411s-1.018-.286-1.196-.179c-.214.125.054.482.054.661.018.214-.214.268-.214.446 0 .304.571.25.429.661-.089.25-.429.304-.571.5-.143.179.018.5.161.625.143.107-.25.286-.304.321-.304.143-.536-.304-.607-.571-.054-.196-.071-.429-.286-.536-.107-.036-.446-.089-.518.018-.107-.268-.482-.375-.732-.464-.357-.125-.661-.125-1.036-.071.125-.018-.036-.571-.339-.482.089-.179.054-.375.089-.554.036-.143.107-.286.214-.411.036-.071.429-.482.304-.5.304.036.643.054.893-.196.161-.161.232-.429.393-.607.232-.268.518.071.768.089.357.018.339-.375.143-.554.232.018.036-.411-.089-.464-.161-.054-.768.107-.446.232-.071-.036-.5.857-.75.411-.071-.089-.107-.464-.268-.482-.143 0-.232.161-.286.268.089-.232-.5-.393-.625-.411.268-.179.054-.375-.143-.482-.143-.089-.589-.161-.714-.018-.339.411.357.464.536.571.054.036.268.161.143.25-.107.054-.429.143-.464.214-.107.161.125.339-.036.5-.161-.161-.161-.429-.286-.607.161.196-.643.089-.625.089-.268 0-.696.179-.893-.089-.036-.071-.036-.482.071-.393-.161-.125-.268-.25-.375-.321-.589.196-1.143.446-1.679.732a.302.302 0 0 0 .214-.018c.143-.054.268-.143.411-.214.179-.071.554-.286.75-.125.018-.036.071-.071.089-.089.125.143.25.286.357.446-.143-.071-.375-.036-.536-.018-.125.036-.339.071-.393.214.054.089.125.232.089.321-.232-.161-.411-.429-.732-.464-.143 0-.286 0-.393.018a11.598 11.598 0 0 0-4.196 3.964.506.506 0 0 0 .214.143c.179.054 0 .571.339.304.107.089.125.214.054.339.018-.018.732.446.786.482.125.107.321.232.375.375.036.125-.071.268-.179.321-.018-.036-.286-.304-.321-.232-.054.089 0 .571.196.554-.286.018-.161 1.125-.232 1.339 0 .018.036.018.036.018-.054.214.125 1.054.482.964-.232.054.411.875.5.929.232.161.5.268.661.5.179.25.179.625.429.821-.071.214.375.464.357.768-.036.018-.054.018-.089.036.089.25.429.25.554.482.071.143 0 .482.232.411.036-.393-.232-.786-.429-1.107-.107-.179-.214-.339-.304-.518-.089-.161-.107-.357-.179-.536.071.018.464.161.429.214-.143.357.571.982.768 1.214.054.054.464.589.25.589.232 0 .554.357.661.536.161.268.125.607.232.893.107.357.607.518.893.679.25.125.464.304.714.393.375.143.464.018.786-.036.464-.071.518.446.893.643.232.125.732.304.982.196-.107.036.375.768.411.821.161.214.464.321.643.536a.283.283 0 0 0 .125-.161c-.071.196.268.571.446.536.196-.036.25-.429.25-.571-.357.179-.679.036-.875-.321-.036-.089-.321-.589-.071-.589.339 0 .107-.268.071-.518s-.286-.411-.411-.625c-.107.214-.464.161-.571-.018 0 .054-.054.143-.054.214-.089 0-.179.018-.268-.018.036-.214.054-.482.107-.714.089-.321.679-.946-.089-.911-.268.018-.375.125-.464.357-.089.214-.054.411-.304.518-.161.071-.696.036-.857-.054-.339-.196-.571-.821-.571-1.179-.018-.482.232-.911 0-1.357.107-.089.214-.268.339-.357.107-.071.232.054.286-.161-.054-.036-.125-.107-.143-.107.268.125.768-.179 1 0 .143.107.304.143.393-.036.018-.054-.125-.268-.054-.411.054.304.25.357.518.161.107.107.393.071.589.179.196.125.232.321.464.054.143.214.161.214.214.429.054.196.161.696.339.786.375.232.286-.393.25-.607-.018-.018-.018-.607-.036-.607-.571-.125-.357-.571-.036-.875.054-.036.464-.179.643-.321.161-.143.357-.393.268-.625.089 0 .161-.071.196-.161-.054-.018-.268-.196-.304-.179.125-.071.107-.179.036-.286.179-.107.089-.304.268-.375.196.268.589-.036.393-.25.179-.25.589-.125.696-.357.268.071.071-.268.214-.464.125-.161.339-.161.5-.25 0 .018.446-.25.304-.268.304.036.911-.286.446-.554.071-.161-.161-.232-.321-.268.125-.036.286.036.393-.036.232-.161.071-.232-.125-.286-.25-.071-.571.089-.768.214zM15.696 27.25a11.341 11.341 0 0 0 6.268-3.375c-.107-.107-.304-.071-.446-.143-.143-.054-.25-.107-.429-.143.036-.357-.357-.482-.607-.661-.232-.179-.375-.375-.714-.304-.036.018-.393.143-.321.214-.232-.196-.339-.304-.643-.393-.286-.089-.482-.446-.768-.125-.143.143-.071.357-.143.5-.232-.196.214-.429.036-.643-.214-.25-.589.161-.768.268-.107.089-.232.125-.304.232-.089.125-.125.286-.196.411-.054-.143-.357-.107-.375-.214.071.429.071.875.161 1.304.054.25 0 .661-.214.857s-.482.411-.518.714c-.036.214.018.411.214.464.018.268-.286.464-.268.75 0 .018.018.196.036.286z"></path></svg></svg></g></g></g></g></g></g><g pointer-events="auto"></g><g pointer-events="none"></g><g pointer-events="auto"><g id="8d339ebc-902e-45bc-8154-ab60733f659a-373fb83f-cc2a-4434-936b-a507ec11b9ad"><g cursor="cell"><line x1="2528" y1="2646" x2="1842" y2="2249" stroke="red" stroke-width="15" opacity="0"></line><line x1="2528" y1="2646" x2="1842" y2="2249" stroke="#e91e63" stroke-width="9" stroke-linecap="round"></line><polygon points="1824 2239, 1841 2266, 1847 2252, 1872 2249, 1824 2239" stroke-linejoin="round" fill="#e91e63" stroke="#e91e63" stroke-width="1"></polygon></g></g><g id="0f962a58-33ca-4383-a0a4-f5474991c8e6-8d339ebc-902e-45bc-8154-ab60733f659a"><g cursor="cell"><line x1="2246" y1="2827" x2="2528" y2="2646" stroke="red" stroke-width="15" opacity="0"></line><line x1="2246" y1="2827" x2="2528" y2="2646" stroke="#e91e63" stroke-width="9" stroke-linecap="round"></line><polygon points="2229 2838, 2276 2827, 2252 2824, 2244 2810, 2229 2838" stroke-linejoin="round" fill="#e91e63" stroke="#e91e63" stroke-width="1"></polygon></g></g><g id="f7c7e41e-7afc-4c89-967e-adb61dacb2b5-7b87e0ba-ccd3-4cee-a154-25f3977078ec"><g cursor="cell"><line x1="2624" y1="1369" x2="2555" y2="1329" stroke="red" stroke-width="36" opacity="0"></line><line x1="2624" y1="1369" x2="2555" y2="1329" stroke="#d32f2f" stroke-width="30" stroke-linecap="round"></line><polygon points="2512 1304, 2554 1371, 2568 1337, 2627 1328, 2512 1304" stroke-linejoin="round" fill="#d32f2f" stroke="#d32f2f" stroke-width="1"></polygon></g></g><g id="11a63fe8-1037-4420-81a7-9f6292223923-ad98fc72-9ceb-4c38-ada8-20e214a18159"><g cursor="cell"><line x1="1664" y1="1924" x2="1595" y2="1884" stroke="red" stroke-width="36" opacity="0"></line><line x1="1664" y1="1924" x2="1595" y2="1884" stroke="#d32f2f" stroke-width="30" stroke-linecap="round"></line><polygon points="1552 1859, 1594 1926, 1608 1892, 1667 1883, 1552 1859" stroke-linejoin="round" fill="#d32f2f" stroke="#d32f2f" stroke-width="1"></polygon></g></g><g id="39af33ed-b6b3-4565-bd2a-94a99aac33f1-c9ef2e02-55e7-47fb-9d47-e5fe3c02a5a5"><g cursor="cell"><line x1="448" y1="1517" x2="704" y2="1369" stroke="red" stroke-width="36" opacity="0"></line><line x1="448" y1="1517" x2="704" y2="1369" stroke="#d32f2f" stroke-width="30" stroke-linecap="round"></line></g></g><g id="c9ef2e02-55e7-47fb-9d47-e5fe3c02a5a5-cf02334e-ad21-474d-856f-2c5c0f77b47c"><g cursor="cell"><line x1="704" y1="1369" x2="635" y2="1329" stroke="red" stroke-width="36" opacity="0"></line><line x1="704" y1="1369" x2="635" y2="1329" stroke="#d32f2f" stroke-width="30" stroke-linecap="round"></line><polygon points="592 1304, 634 1371, 648 1337, 707 1328, 592 1304" stroke-linejoin="round" fill="#d32f2f" stroke="#d32f2f" stroke-width="1"></polygon></g></g><g id="4420f5c8-1391-43ac-a275-ac13bbaa922f-d2c1b564-bf28-4aea-b589-27c45e07e95b"><g cursor="cell"><line x1="1871" y1="2768" x2="2176" y2="2590" stroke="red" stroke-width="15" opacity="0"></line><line x1="1871" y1="2768" x2="2176" y2="2590" stroke="#4caf50" stroke-width="9" stroke-linecap="round"></line><polygon points="1853 2779, 1901 2768, 1876 2765, 1870 2751, 1853 2779" stroke-linejoin="round" fill="#4caf50" stroke="#4caf50" stroke-width="1"></polygon></g></g><g id="0f962a58-33ca-4383-a0a4-f5474991c8e6-f1d1d421-dbef-4f57-8b37-214267790310"><g cursor="cell"><line x1="1685" y1="3153" x2="1552" y2="3228" stroke="red" stroke-width="15" opacity="0"></line><line x1="1685" y1="3153" x2="1552" y2="3228" stroke="#e91e63" stroke-width="9" stroke-linecap="round"></line><polygon points="1703 3143, 1655 3153, 1679 3156, 1685 3171, 1703 3143" stroke-linejoin="round" fill="#e91e63" stroke="#e91e63" stroke-width="1"></polygon></g></g><g id="4420f5c8-1391-43ac-a275-ac13bbaa922f-0c323621-8c05-4524-943a-5fd8badc18aa"><g cursor="cell"><line x1="1445" y1="3014" x2="1216" y2="3145" stroke="red" stroke-width="15" opacity="0"></line><line x1="1445" y1="3014" x2="1216" y2="3145" stroke="#4caf50" stroke-width="9" stroke-linecap="round"></line><polygon points="1463 3004, 1415 3014, 1440 3017, 1446 3031, 1463 3004" stroke-linejoin="round" fill="#4caf50" stroke="#4caf50" stroke-width="1"></polygon></g></g><g id="b9ab706d-6736-41dc-b159-06aa684594e0-a606afb5-0ef6-4bcb-9a0d-03b45cccd334"><g cursor="cell"><line x1="1205" y1="2875" x2="976" y2="3006" stroke="red" stroke-width="15" opacity="0"></line><line x1="1205" y1="2875" x2="976" y2="3006" stroke="#607d8b" stroke-width="9" stroke-linecap="round"></line><polygon points="1223 2865, 1175 2875, 1199 2878, 1205 2892, 1223 2865" stroke-linejoin="round" fill="#607d8b" stroke="#607d8b" stroke-width="1"></polygon></g></g><g id="adc7edb3-833b-4b78-a99d-084e62d5ef3b-45374a2e-b27f-4af0-81d3-47453a2f4b1f"><g cursor="cell"><line x1="1856" y1="2479" x2="1650" y2="2360" stroke="red" stroke-width="15" opacity="0"></line><line x1="1856" y1="2479" x2="1650" y2="2360" stroke="#607d8b" stroke-width="9" stroke-linecap="round"></line><polygon points="1632 2350, 1649 2377, 1655 2363, 1680 2360, 1632 2350" stroke-linejoin="round" fill="#607d8b" stroke="#607d8b" stroke-width="1"></polygon></g></g><g id="6bc8b032-f0e5-4131-9ef7-d69e55a5a6a7-11a63fe8-1037-4420-81a7-9f6292223923"><g cursor="cell"><line x1="1408" y1="2072" x2="1664" y2="1924" stroke="red" stroke-width="36" opacity="0"></line><line x1="1408" y1="2072" x2="1664" y2="1924" stroke="#d32f2f" stroke-width="30" stroke-linecap="round"></line></g></g><g id="47f1eb6f-8352-4aae-a355-13b3e22803df-67f94f6f-c3ac-43bd-9b18-5cdf7f7b4fdb"><g cursor="cell"><line x1="-2432" y1="1036" x2="1247" y2="-1091" stroke="red" stroke-width="15" opacity="0"></line><line x1="-2432" y1="1036" x2="1247" y2="-1091" stroke="#4caf50" stroke-width="9" stroke-linecap="round"></line></g></g><g id="f9459560-744f-42d8-92d6-3b741969e251-ef41f55f-155f-4db1-8e14-ea353343a166"><g cursor="cell"><line x1="-1888" y1="1240" x2="-706" y2="556" stroke="red" stroke-width="15" opacity="0"></line><line x1="-1888" y1="1240" x2="-706" y2="556" stroke="#e91e63" stroke-width="9" stroke-linecap="round"></line><polygon points="-688 546, -736 556, -711 559, -705 573, -688 546" stroke-linejoin="round" fill="#e91e63" stroke="#e91e63" stroke-width="1"></polygon></g></g><g id="f7c7e41e-7afc-4c89-967e-adb61dacb2b5-24d8cc7f-babc-41c1-b7eb-178e0a817d3c"><g cursor="cell"><line x1="2624" y1="1369" x2="3584" y2="814" stroke="red" stroke-width="36" opacity="0"></line><line x1="2624" y1="1369" x2="3584" y2="814" stroke="#d32f2f" stroke-width="30" stroke-linecap="round"></line></g></g><g id="24f2db4b-9e1f-482a-965e-53eb0df55795-0c3071fc-2348-4558-ac04-512b124fe97b"><g cursor="cell"><line x1="-256" y1="814" x2="-325" y2="774" stroke="red" stroke-width="36" opacity="0"></line><line x1="-256" y1="814" x2="-325" y2="774" stroke="#d32f2f" stroke-width="30" stroke-linecap="round"></line><polygon points="-368 749, -326 816, -312 782, -253 773, -368 749" stroke-linejoin="round" fill="#d32f2f" stroke="#d32f2f" stroke-width="1"></polygon></g></g><g id="c9ef2e02-55e7-47fb-9d47-e5fe3c02a5a5-d52b57f4-999f-43da-81af-e2d219a67896"><g cursor="cell"><line x1="704" y1="1369" x2="1664" y2="814" stroke="red" stroke-width="36" opacity="0"></line><line x1="704" y1="1369" x2="1664" y2="814" stroke="#d32f2f" stroke-width="30" stroke-linecap="round"></line></g></g><g id="d2c1b564-bf28-4aea-b589-27c45e07e95b-6be34937-1b78-4c57-90e5-577565fcd348"><g cursor="cell"><line x1="2176" y1="2590" x2="1714" y2="2323" stroke="red" stroke-width="15" opacity="0"></line><line x1="2176" y1="2590" x2="1714" y2="2323" stroke="#4caf50" stroke-width="9" stroke-linecap="round"></line><polygon points="1696 2313, 1713 2340, 1719 2326, 1744 2323, 1696 2313" stroke-linejoin="round" fill="#4caf50" stroke="#4caf50" stroke-width="1"></polygon></g></g><g id="11a63fe8-1037-4420-81a7-9f6292223923-f7c7e41e-7afc-4c89-967e-adb61dacb2b5"><g cursor="cell"><line x1="1664" y1="1924" x2="2624" y2="1369" stroke="red" stroke-width="36" opacity="0"></line><line x1="1664" y1="1924" x2="2624" y2="1369" stroke="#d32f2f" stroke-width="30" stroke-linecap="round"></line></g></g><g id="0c323621-8c05-4524-943a-5fd8badc18aa-47f1eb6f-8352-4aae-a355-13b3e22803df"><g cursor="cell"><line x1="1216" y1="3145" x2="-2432" y2="1036" stroke="red" stroke-width="15" opacity="0"></line><line x1="1216" y1="3145" x2="-2432" y2="1036" stroke="#4caf50" stroke-width="9" stroke-linecap="round"></line></g></g><g id="b9ab706d-6736-41dc-b159-06aa684594e0-adc7edb3-833b-4b78-a99d-084e62d5ef3b"><g cursor="cell"><line x1="1630" y1="2628" x2="1856" y2="2479" stroke="red" stroke-width="15" opacity="0"></line><line x1="1630" y1="2628" x2="1856" y2="2479" stroke="#607d8b" stroke-width="9" stroke-linecap="round"></line><polygon points="1613 2639, 1660 2627, 1635 2625, 1627 2611, 1613 2639" stroke-linejoin="round" fill="#607d8b" stroke="#607d8b" stroke-width="1"></polygon></g></g><g id="6bc8b032-f0e5-4131-9ef7-d69e55a5a6a7-39af33ed-b6b3-4565-bd2a-94a99aac33f1"><g cursor="cell"><line x1="1408" y1="2072" x2="448" y2="1517" stroke="red" stroke-width="36" opacity="0"></line><line x1="1408" y1="2072" x2="448" y2="1517" stroke="#d32f2f" stroke-width="30" stroke-linecap="round"></line></g></g><g id="47bd3deb-ebc0-49b8-b9c7-06a855aa294e-24f2db4b-9e1f-482a-965e-53eb0df55795"><g cursor="cell"><line x1="-512" y1="962" x2="-256" y2="814" stroke="red" stroke-width="36" opacity="0"></line><line x1="-512" y1="962" x2="-256" y2="814" stroke="#d32f2f" stroke-width="30" stroke-linecap="round"></line></g></g><g id="d52b57f4-999f-43da-81af-e2d219a67896-560434e0-2101-4e76-a9c9-b3679a207d3a"><g cursor="cell"><line x1="1664" y1="814" x2="1595" y2="774" stroke="red" stroke-width="36" opacity="0"></line><line x1="1664" y1="814" x2="1595" y2="774" stroke="#d32f2f" stroke-width="30" stroke-linecap="round"></line><polygon points="1552 749, 1594 816, 1608 782, 1667 773, 1552 749" stroke-linejoin="round" fill="#d32f2f" stroke="#d32f2f" stroke-width="1"></polygon></g></g><g id="328e7f96-1e0a-499a-acb2-07c3f0bb2bde-6bc8b032-f0e5-4131-9ef7-d69e55a5a6a7"><g cursor="cell"><line x1="1495" y1="2129" x2="1408" y2="2072" stroke="red" stroke-width="36" opacity="0"></line><line x1="1495" y1="2129" x2="1408" y2="2072" stroke="#d32f2f" stroke-width="30" stroke-linecap="round"></line><polygon points="1535 2155, 1501 2088, 1483 2121, 1423 2127, 1535 2155" stroke-linejoin="round" fill="#d32f2f" stroke="#d32f2f" stroke-width="1"></polygon></g></g><g id="24d8cc7f-babc-41c1-b7eb-178e0a817d3c-da48e365-d9a7-4472-aa7e-ee4950d22948"><g cursor="cell"><line x1="3584" y1="814" x2="3515" y2="774" stroke="red" stroke-width="36" opacity="0"></line><line x1="3584" y1="814" x2="3515" y2="774" stroke="#d32f2f" stroke-width="30" stroke-linecap="round"></line><polygon points="3472 749, 3514 816, 3528 782, 3587 773, 3472 749" stroke-linejoin="round" fill="#d32f2f" stroke="#d32f2f" stroke-width="1"></polygon></g></g><g id="f1d1d421-dbef-4f57-8b37-214267790310-f9459560-744f-42d8-92d6-3b741969e251"><g cursor="cell"><line x1="1552" y1="3228" x2="-1888" y2="1240" stroke="red" stroke-width="15" opacity="0"></line><line x1="1552" y1="3228" x2="-1888" y2="1240" stroke="#e91e63" stroke-width="9" stroke-linecap="round"></line></g></g><g id="39af33ed-b6b3-4565-bd2a-94a99aac33f1-47bd3deb-ebc0-49b8-b9c7-06a855aa294e"><g cursor="cell"><line x1="448" y1="1517" x2="-512" y2="962" stroke="red" stroke-width="36" opacity="0"></line><line x1="448" y1="1517" x2="-512" y2="962" stroke="#d32f2f" stroke-width="30" stroke-linecap="round"></line></g></g></g><g pointer-events="auto"><g><g id="67f94f6f-c3ac-43bd-9b18-5cdf7f7b4fdb"><svg x="1202" y="-1173" width="123" height="108.05" viewBox="0 0 32.544 28.588"><path fill="#b8b8bb" stroke="#83838a" d="M10.115 6.02v14.218l7.873-4.317V1.475z" fill-rule="evenodd" stroke-linejoin="round" stroke-width=".268"></path><path fill="#d2d2d4" stroke="#83838a" d="m.265 2.228 9.85 3.792v14.218l-9.85-8.53z" fill-rule="evenodd" stroke-linejoin="round" stroke-width=".265"></path><path fill="#ececed" stroke="#83838a" d="m10.115 6.02 7.873-4.545L3.548.332.265 2.228z" fill-rule="evenodd" stroke-linejoin="round" stroke-width=".265"></path><path fill="none" stroke="#000000" d="m.265 11.707 9.85 8.531 7.873-4.317V1.475L3.392.271.265 2.077z" stroke-width=".529"></path><path fill="#ececed" stroke="#83838a" d="m22.429 3.65-8.208 4.74 14.827 10.397 3.231-1.865z" fill-rule="evenodd" stroke-width=".268"></path><path fill="#d2d2d4" stroke="#83838a" d="M14.22 8.391v14.218l14.777 5.687.051-9.509z" fill-rule="evenodd" stroke-width=".265"></path><path fill="#b8b8bb" stroke="#83838a" d="m29.048 18.787 3.231-1.865V26.4l-3.282 1.897z" fill-rule="evenodd" stroke-width=".265"></path><path fill="none" stroke="#000000" d="m22.429 3.65-8.208 4.74v14.22l14.776 5.686 3.282-1.896v-9.478z" stroke-width=".529"></path><path fill="#4286c5" d="M25.604 20.872c-.071-.975-.928-2.116-1.982-2.598a2.547 2.547 0 0 0-.398-.145c-.566-.909-1.446-1.739-2.441-2.194-1.501-.688-2.76-.294-3.057.871-1.061-.091-1.77.532-1.77 1.598 0 1.436 1.271 3.18 2.84 3.898l5.961 2.73c1.411.645 2.555.121 2.555-1.17 0-1.004-.695-2.2-1.708-2.99zm-.847 3.38-5.961-2.73c-1.099-.502-1.988-1.723-1.988-2.728 0-.917.74-1.337 1.704-1.022v-.018c0-1.149 1.016-1.614 2.27-1.04.95.435 1.763 1.34 2.102 2.252.198-.065.456-.042.738.087.626.287 1.135.986 1.135 1.56a.657.657 0 0 1-.156.455c.052.018.105.041.156.065.94.43 1.704 1.478 1.704 2.339 0 .86-.763 1.21-1.704.78z"></path></svg></g></g><g><g id="959f7658-475e-4bf7-b6c1-f2d2f88d54ab"><svg x="3296" y="370" width="128" height="111.429" viewBox="0 0 33.867 29.482"><path fill="none" stroke="#999" d="M.265 19.553 16.933 9.93l16.669 9.623" stroke-width=".265"></path><path fill="none" stroke="#999" d="M16.933.306V9.93" stroke-width=".267"></path><path fill="#ccc" d="M16.933 19.553v9.624l16.669-9.624V9.93Z" fill-opacity=".392" fill-rule="evenodd"></path><path fill="#e6e6e6" d="M.265 9.93v9.623l16.668 9.624v-9.624Z" fill-opacity=".392" fill-rule="evenodd"></path><path fill="#fff" d="M.265 9.93 16.933.306 33.602 9.93l-16.669 9.623z" fill-opacity=".392" fill-rule="evenodd"></path><path fill="none" stroke="#999" d="m.265 9.93 16.668 9.623L33.602 9.93m-16.669 9.623v9.624" stroke-width=".265"></path><path fill="none" stroke="#000000" d="M.265 9.93v9.623l16.668 9.624 16.669-9.624V9.93L16.933.306z" stroke-width=".529"></path></svg></g></g><g><g id="a0aecbf5-de21-4977-87e9-46a2d69930c9"><svg x="1376" y="370" width="128" height="111.429" viewBox="0 0 33.867 29.482"><path fill="none" stroke="#999" d="M.265 19.553 16.933 9.93l16.669 9.623" stroke-width=".265"></path><path fill="none" stroke="#999" d="M16.933.306V9.93" stroke-width=".267"></path><path fill="#ccc" d="M16.933 19.553v9.624l16.669-9.624V9.93Z" fill-opacity=".392" fill-rule="evenodd"></path><path fill="#e6e6e6" d="M.265 9.93v9.623l16.668 9.624v-9.624Z" fill-opacity=".392" fill-rule="evenodd"></path><path fill="#fff" d="M.265 9.93 16.933.306 33.602 9.93l-16.669 9.623z" fill-opacity=".392" fill-rule="evenodd"></path><path fill="none" stroke="#999" d="m.265 9.93 16.668 9.623L33.602 9.93m-16.669 9.623v9.624" stroke-width=".265"></path><path fill="none" stroke="#000000" d="M.265 9.93v9.623l16.668 9.624 16.669-9.624V9.93L16.933.306z" stroke-width=".529"></path></svg></g></g><g><g id="9da0fb38-90e0-4e49-a8e7-ac998f513b4e"><svg x="2336" y="925" width="128" height="111.429" viewBox="0 0 33.867 29.482"><path fill="none" stroke="#999" d="M.265 19.553 16.933 9.93l16.669 9.623" stroke-width=".265"></path><path fill="none" stroke="#999" d="M16.933.306V9.93" stroke-width=".267"></path><path fill="#ccc" d="M16.933 19.553v9.624l16.669-9.624V9.93Z" fill-opacity=".392" fill-rule="evenodd"></path><path fill="#e6e6e6" d="M.265 9.93v9.623l16.668 9.624v-9.624Z" fill-opacity=".392" fill-rule="evenodd"></path><path fill="#fff" d="M.265 9.93 16.933.306 33.602 9.93l-16.669 9.623z" fill-opacity=".392" fill-rule="evenodd"></path><path fill="none" stroke="#999" d="m.265 9.93 16.668 9.623L33.602 9.93m-16.669 9.623v9.624" stroke-width=".265"></path><path fill="none" stroke="#000000" d="M.265 9.93v9.623l16.668 9.624 16.669-9.624V9.93L16.933.306z" stroke-width=".529"></path></svg></g></g><g><g id="bcc53b2c-0155-4732-bde9-0b1a5e268680"><svg x="-544" y="370" width="128" height="111" fill-rule="evenodd" stroke-linejoin="round" stroke-miterlimit="1.414"><path fill="#b8b8bb" d="M64 74v37l64-37V37L64 74Z"></path><path fill="#d2d2d4" d="M0 37v37l64 37V74L0 37Z"></path><path fill="#ececed" d="M0 37 64 0l64 37-64 37L0 37Z"></path><path fill="#83838a" d="m64 73.407 62.111-35.86.514.889-62.487 36.078h-.276L.743 38.072l.514-.89L64 73.407Z"></path><path fill="#83838a" d="M63.486 74h1.027v36h-1.027z"></path><path fill="#000000" d="M128 37v37l-64 37L0 74V37L64 0l64 37ZM2.054 38.185v34.63L64 108.627l61.946-35.812v-34.63L64 2.373 2.054 38.185Z"></path></svg><svg x="-493" y="385" width="72" height="36" style="overflow: visible; cursor: default;"><rect transform="matrix(0.707 0.409 -0.707 0.409 0 0)" width="72" height="36" rx="5" ry="5" fill="#4286c5"></rect><text transform="matrix(0.707 0.409 -0.707 0.409 0 0)" font-family="Open Sans" text-anchor="middle" x="50%" font-weight="normal" font-size="20pt" y="80%" fill="#ffffff">T3a</text></svg></g></g><g><g id="ad207468-db75-4233-b69d-fafd4fb84b95"><svg x="416" y="925" width="128" height="111.429" viewBox="0 0 33.867 29.482"><path fill="none" stroke="#999" d="M.265 19.553 16.933 9.93l16.669 9.623" stroke-width=".265"></path><path fill="none" stroke="#999" d="M16.933.306V9.93" stroke-width=".267"></path><path fill="#ccc" d="M16.933 19.553v9.624l16.669-9.624V9.93Z" fill-opacity=".392" fill-rule="evenodd"></path><path fill="#e6e6e6" d="M.265 9.93v9.623l16.668 9.624v-9.624Z" fill-opacity=".392" fill-rule="evenodd"></path><path fill="#fff" d="M.265 9.93 16.933.306 33.602 9.93l-16.669 9.623z" fill-opacity=".392" fill-rule="evenodd"></path><path fill="none" stroke="#999" d="m.265 9.93 16.668 9.623L33.602 9.93m-16.669 9.623v9.624" stroke-width=".265"></path><path fill="none" stroke="#000000" d="M.265 9.93v9.623l16.668 9.624 16.669-9.624V9.93L16.933.306z" stroke-width=".529"></path></svg></g></g><g><g id="48f14c7f-753d-4e12-91f9-e49674b2f8be"><svg x="1376" y="1480" width="128" height="111.429" viewBox="0 0 33.867 29.482"><path fill="none" stroke="#999" d="M.265 19.553 16.933 9.93l16.669 9.623" stroke-width=".265"></path><path fill="none" stroke="#999" d="M16.933.306V9.93" stroke-width=".267"></path><path fill="#ccc" d="M16.933 19.553v9.624l16.669-9.624V9.93Z" fill-opacity=".392" fill-rule="evenodd"></path><path fill="#e6e6e6" d="M.265 9.93v9.623l16.668 9.624v-9.624Z" fill-opacity=".392" fill-rule="evenodd"></path><path fill="#fff" d="M.265 9.93 16.933.306 33.602 9.93l-16.669 9.623z" fill-opacity=".392" fill-rule="evenodd"></path><path fill="none" stroke="#999" d="m.265 9.93 16.668 9.623L33.602 9.93m-16.669 9.623v9.624" stroke-width=".265"></path><path fill="none" stroke="#000000" d="M.265 9.93v9.623l16.668 9.624 16.669-9.624V9.93L16.933.306z" stroke-width=".529"></path></svg></g></g></g><g pointer-events="auto"></g><g pointer-events="auto"><g><g id="4fdf2176-413b-4fa0-8724-785d82289520"><svg x="1408" y="2257" overflow="visible"><g transform="scale(1.4131949617798671) matrix(0.707 -0.409 0.707 0.409 0 0)"><circle cx="0" cy="0" fill="#ffffff" r="31"></circle><svg width="48" height="48" x="-24" y="-24" style="fill: rgb(255, 255, 255);"><svg xmlns="http://www.w3.org/2000/svg" width="48" height="48" viewBox="0 0 48 48"><g fill="none" fill-rule="evenodd"><path fill="#4D27AA" d="M32.625 35.376h2V12.625h-2v22.751Zm-19.25 0h2V12.625h-2v22.751Zm26.25-9.89-1.782-1.485 1.782-1.486v2.971Zm1.424-6.011a1.004 1.004 0 0 0-1.065.136l-4.344 3.621a1.003 1.003 0 0 0 0 1.538l4.345 3.62a1.003 1.003 0 0 0 1.064.136 1 1 0 0 0 .576-.905V20.38a1 1 0 0 0-.576-.905ZM8.375 25.486v-2.971l1.782 1.486-1.782 1.485Zm-.359-5.875a1.003 1.003 0 0 0-1.641.769v7.241a1 1 0 0 0 1.64.769l4.345-3.62a1.003 1.003 0 0 0 0-1.538l-4.344-3.621ZM24 44.001c-11.028 0-20-8.972-20-20S12.972 4 24 4s20 8.973 20 20.001-8.972 20-20 20ZM24 2C11.869 2 2 11.869 2 24.001c0 12.131 9.869 22 22 22s22-9.869 22-22C46 11.869 36.131 2 24 2Zm4.246 27.126-8.496-.005.002-6.745 8.498.004-.004 6.746Zm-5.867-10.075c.002-.552.187-1.064.523-1.443.304-.34.696-.529 1.105-.529h.005c.889.003 1.61.898 1.607 1.997l-.001 1.303-3.245-.002.006-1.326Zm6.871 1.329-1.632-.001.001-1.3c.007-2.199-1.609-3.993-3.601-4h-.011c-.989 0-1.912.427-2.601 1.202a4.169 4.169 0 0 0-1.027 2.762l-.006 1.334-1.621-.001a.997.997 0 0 0-1 1l-.002 8.745a1 1 0 0 0 1 1l10.496.005a.997.997 0 0 0 1-1l.004-8.746a.997.997 0 0 0-1-1Z"></path></g></svg></svg></g></svg></g></g><g><g id="b0fa7824-a22c-4f85-aabd-1e2ee2925bdc"><svg x="1136" y="2858" overflow="visible"><g transform="scale(1.4131949617798671) matrix(0.707 -0.409 0.707 0.409 0 0)"><circle cx="0" cy="0" fill="transparent" r="31"></circle><svg width="48" height="48" x="-24" y="-24" style="fill: rgb(255, 255, 255);"><svg xmlns="http://www.w3.org/2000/svg" width="48" height="48" viewBox="0 0 48 48"><g fill="none" fill-rule="evenodd"><path fill="#4D27AA" d="M4 43.07h39.944v-9.359H4v9.359Zm41.944-10.359V44.07a1 1 0 0 1-1 1H3a1 1 0 0 1-1-1V32.711a1 1 0 0 1 1-1h41.944a1 1 0 0 1 1 1ZM4 28.214h39.944v-9.359H4v9.359Zm41.944-10.359v11.36a1 1 0 0 1-1 1H3a1 1 0 0 1-1-1v-11.36a1 1 0 0 1 1-1h41.944a1 1 0 0 1 1 1ZM4 13.359h39.944V4H4v9.359ZM45.944 3v11.359a1 1 0 0 1-1 1H3a1 1 0 0 1-1-1V3a1 1 0 0 1 1-1h41.944a1 1 0 0 1 1 1Zm-6.545 35.417c0 .856.08 1.476.241 1.861.161.385.418.576.771.576.352 0 .609-.191.77-.576.161-.385.241-1.005.241-1.861 0-.851-.08-1.468-.241-1.853-.161-.385-.418-.577-.77-.577-.353 0-.61.192-.771.577-.161.385-.241 1.002-.241 1.853Zm-.413 2.341c-.325-.536-.487-1.316-.487-2.341 0-1.026.162-1.805.487-2.338.325-.533.8-.8 1.425-.8s1.1.267 1.424.8c.326.533.488 1.312.488 2.338 0 1.031-.162 1.813-.488 2.345-.324.534-.799.8-1.424.8-.625 0-1.1-.267-1.425-.804Zm-1.879.778a.544.544 0 0 0 .403-.153.547.547 0 0 0 .154-.406.549.549 0 0 0-.154-.406.54.54 0 0 0-.403-.153.541.541 0 0 0-.404.153.548.548 0 0 0-.153.406c0 .169.051.305.153.406a.545.545 0 0 0 .404.153Zm-1.523-.813h-2.525c.718-.874 1.226-1.521 1.523-1.944.296-.422.501-.776.612-1.062a2.28 2.28 0 0 0 .168-.83c0-.506-.134-.901-.401-1.184-.265-.282-.636-.424-1.112-.424-.273 0-.539.046-.799.136-.259.09-.529.234-.807.432v.744c.587-.374 1.073-.56 1.457-.56.502 0 .752.303.752.909 0 .274-.072.562-.213.865-.144.303-.378.683-.706 1.14a44.903 44.903 0 0 1-1.43 1.849v.655h3.481v-.726Zm-5.086.813a.548.548 0 0 0 .404-.153.55.55 0 0 0 .153-.406.552.552 0 0 0-.153-.406.544.544 0 0 0-.404-.153.543.543 0 0 0-.404.153.548.548 0 0 0-.153.406c0 .169.051.305.153.406a.547.547 0 0 0 .404.153Zm-4.243-2.752c0 .723.082 1.251.247 1.586.164.335.421.502.774.502.589 0 .883-.41.883-1.232 0-.379-.077-.669-.233-.87-.154-.2-.383-.302-.686-.302-.322 0-.65.082-.985.246v.07Zm-.413 2.057c-.306-.48-.459-1.221-.459-2.223 0-1.078.185-1.904.553-2.478.368-.574.892-.861 1.572-.861a2.645 2.645 0 0 1 1.198.289v.638a2.587 2.587 0 0 0-.529-.17 2.574 2.574 0 0 0-.557-.067c-.439 0-.767.174-.984.521-.217.347-.341.898-.371 1.656.396-.233.805-.35 1.226-.35.469 0 .845.164 1.127.49.282.326.423.76.423 1.302 0 .606-.163 1.086-.483 1.441-.322.355-.759.533-1.308.533-.632 0-1.101-.24-1.408-.721Zm-3.207.608h.882v-6.056h-.807l-1.458.83v.717l1.383-.656v5.165Zm-3.258.087a.55.55 0 0 0 .405-.153.55.55 0 0 0 .153-.406.552.552 0 0 0-.153-.406.547.547 0 0 0-.405-.153.542.542 0 0 0-.403.153.548.548 0 0 0-.153.406c0 .169.051.305.153.406a.546.546 0 0 0 .403.153Zm-1.522-.813h-2.524c.717-.874 1.225-1.521 1.521-1.944.298-.422.502-.776.613-1.062a2.26 2.26 0 0 0 .168-.83c0-.506-.133-.901-.4-1.184-.266-.282-.637-.424-1.112-.424-.274 0-.539.046-.799.136-.261.09-.529.234-.808.432v.744c.587-.374 1.073-.56 1.457-.56.502 0 .752.303.752.909 0 .274-.071.562-.213.865-.143.303-.378.683-.706 1.14a44.714 44.714 0 0 1-1.429 1.849v.655h3.48v-.726Zm-7.426.726h.91l1.941-5.409v-.647H9.734v.725h2.664l-1.969 5.331Zm-3.425 0h.882v-6.056h-.807l-1.458.83v.717l1.383-.656v5.165Zm32.395-18.212c0 .856.08 1.478.241 1.862.161.384.418.576.771.576.352 0 .609-.192.77-.576.161-.384.241-1.006.241-1.862 0-.85-.08-1.468-.241-1.852-.161-.384-.418-.577-.77-.577-.353 0-.61.193-.771.577-.161.384-.241 1.002-.241 1.852Zm-.413 2.343c-.325-.536-.487-1.317-.487-2.343 0-1.024.162-1.804.487-2.337.325-.533.8-.8 1.425-.8s1.1.267 1.424.8c.326.533.488 1.313.488 2.337 0 1.031-.162 1.813-.488 2.347-.324.533-.799.799-1.424.799-.625 0-1.1-.267-1.425-.803Zm-1.879.777a.544.544 0 0 0 .403-.153.549.549 0 0 0 .154-.406.553.553 0 0 0-.154-.407.548.548 0 0 0-.403-.152.548.548 0 0 0-.404.152.552.552 0 0 0-.153.407c0 .169.051.304.153.406a.545.545 0 0 0 .404.153Zm-3.352-.087h.882v-6.056h-.807l-1.457.831v.715l1.382-.655v5.165Zm-3.257.087a.548.548 0 0 0 .404-.153.552.552 0 0 0 .153-.406.556.556 0 0 0-.153-.407.552.552 0 0 0-.404-.152.55.55 0 0 0-.404.152.552.552 0 0 0-.153.407c0 .169.051.304.153.406a.547.547 0 0 0 .404.153Zm-4.243-2.752c0 .722.082 1.251.247 1.586.164.335.421.502.774.502.589 0 .883-.41.883-1.231 0-.379-.077-.669-.233-.871-.154-.201-.383-.301-.686-.301-.322 0-.65.082-.985.245v.07Zm-.413 2.058c-.306-.481-.459-1.222-.459-2.225 0-1.077.185-1.903.553-2.477.368-.574.892-.861 1.572-.861a2.696 2.696 0 0 1 1.198.289v.638a2.716 2.716 0 0 0-.529-.171 2.565 2.565 0 0 0-.557-.065c-.439 0-.767.173-.984.52-.217.346-.341.899-.371 1.655a2.397 2.397 0 0 1 1.226-.349c.469 0 .845.163 1.127.489.282.327.423.761.423 1.303 0 .605-.163 1.086-.483 1.441-.322.356-.759.533-1.308.533-.632 0-1.101-.24-1.408-.72Zm-3.207.607h.882v-6.056h-.807l-1.458.831v.715l1.383-.655v5.165Zm-3.258.087a.55.55 0 0 0 .405-.153.552.552 0 0 0 .153-.406.556.556 0 0 0-.153-.407.554.554 0 0 0-.405-.152.55.55 0 0 0-.403.152.552.552 0 0 0-.153.407c0 .169.051.304.153.406a.546.546 0 0 0 .403.153Zm-1.522-.812h-2.524c.717-.874 1.225-1.523 1.521-1.945.298-.422.502-.776.613-1.061.112-.286.168-.563.168-.831 0-.506-.133-.901-.4-1.184-.266-.282-.637-.424-1.112-.424-.274 0-.539.045-.799.136-.261.09-.529.234-.808.433v.742c.587-.372 1.073-.559 1.457-.559.502 0 .752.303.752.908 0 .275-.071.563-.213.866-.143.303-.378.683-.706 1.14a44.043 44.043 0 0 1-1.429 1.849v.655h3.48v-.725Zm-7.426.725h.91l1.941-5.409v-.647H9.734v.725h2.664l-1.969 5.331Zm-3.425 0h.882v-6.056h-.807l-1.458.831v.715l1.383-.655v5.165ZM39.399 8.917c0 .856.08 1.477.241 1.862.161.384.418.576.771.576.352 0 .609-.192.77-.576.161-.385.241-1.006.241-1.862 0-.85-.08-1.468-.241-1.852-.161-.385-.418-.577-.77-.577-.353 0-.61.192-.771.577-.161.384-.241 1.002-.241 1.852Zm-.413 2.342c-.325-.536-.487-1.316-.487-2.342 0-1.025.162-1.804.487-2.337.325-.533.8-.8 1.425-.8s1.1.267 1.424.8c.326.533.488 1.312.488 2.337 0 1.031-.162 1.813-.488 2.346-.324.534-.799.8-1.424.8-.625 0-1.1-.268-1.425-.804Zm-1.879.778a.541.541 0 0 0 .403-.154.547.547 0 0 0 .154-.406.55.55 0 0 0-.154-.406.544.544 0 0 0-.403-.152.544.544 0 0 0-.404.152.55.55 0 0 0-.153.406c0 .169.051.305.153.406a.542.542 0 0 0 .404.154Zm-4.316-3.12c0 .856.08 1.477.24 1.862.162.384.418.576.77.576.353 0 .611-.192.771-.576.162-.385.241-1.006.241-1.862 0-.85-.079-1.468-.241-1.852-.16-.385-.418-.577-.771-.577-.352 0-.608.192-.77.577-.16.384-.24 1.002-.24 1.852Zm-.414 2.342c-.325-.536-.487-1.316-.487-2.342 0-1.025.162-1.804.487-2.337.326-.533.8-.8 1.424-.8.626 0 1.101.267 1.425.8.326.533.488 1.312.488 2.337 0 1.031-.162 1.813-.488 2.346-.324.534-.799.8-1.425.8-.624 0-1.098-.268-1.424-.804Zm-1.879.778a.545.545 0 0 0 .404-.154.55.55 0 0 0 .153-.406.554.554 0 0 0-.153-.406.548.548 0 0 0-.404-.152.546.546 0 0 0-.404.152.55.55 0 0 0-.153.406c0 .169.051.305.153.406a.543.543 0 0 0 .404.154Zm-4.243-2.753c0 .723.082 1.252.247 1.587.164.335.421.502.774.502.589 0 .883-.411.883-1.233 0-.379-.077-.668-.233-.869-.154-.201-.383-.302-.686-.302-.322 0-.65.082-.985.246v.069Zm-.413 2.058c-.306-.481-.459-1.222-.459-2.224 0-1.077.185-1.903.553-2.478.368-.573.892-.86 1.572-.86.21 0 .423.026.637.078.213.053.4.123.561.21v.639a2.65 2.65 0 0 0-.529-.171 2.57 2.57 0 0 0-.557-.066c-.439 0-.767.173-.984.521-.217.346-.341.898-.371 1.655a2.397 2.397 0 0 1 1.226-.349c.469 0 .845.163 1.127.489.282.326.423.761.423 1.303 0 .605-.163 1.085-.483 1.441-.322.355-.759.533-1.308.533-.632 0-1.101-.24-1.408-.721Zm-3.207.608h.882V5.893h-.807l-1.458.83v.717l1.383-.655v5.165Zm-3.258.087a.547.547 0 0 0 .405-.154.55.55 0 0 0 .153-.406.554.554 0 0 0-.153-.406.55.55 0 0 0-.405-.152.545.545 0 0 0-.403.152.55.55 0 0 0-.153.406c0 .169.051.305.153.406a.543.543 0 0 0 .403.154Zm-1.522-.813h-2.524c.717-.874 1.225-1.522 1.521-1.944.298-.422.502-.776.613-1.062.112-.286.168-.562.168-.831 0-.505-.133-.9-.4-1.183-.266-.282-.637-.424-1.112-.424-.274 0-.539.045-.799.136-.261.09-.529.234-.808.432v.743c.587-.373 1.073-.559 1.457-.559.502 0 .752.303.752.908 0 .275-.071.563-.213.865-.143.303-.378.684-.706 1.141a44.136 44.136 0 0 1-1.429 1.848v.656h3.48v-.726Zm-7.426.726h.91l1.941-5.409v-.648H9.734v.726h2.664l-1.969 5.331ZM7.004 6.785l-1.383.655v-.717l1.458-.83h.807v6.057h-.882V6.785Z"></path></g></svg></svg></g></svg></g></g><g><g id="fa65e2d4-7231-4cdf-9846-1ebdd1542db7"><svg x="1376" y="2997" overflow="visible"><g transform="scale(1.4131949617798671) matrix(0.707 -0.409 0.707 0.409 0 0)"><circle cx="0" cy="0" fill="transparent" r="31"></circle><svg width="48" height="48" x="-24" y="-24" style="fill: rgb(255, 255, 255);"><svg xmlns="http://www.w3.org/2000/svg" width="48" height="48" viewBox="0 0 48 48"><g fill="none" fill-rule="evenodd"><path fill="#4D27AA" d="M4 43.07h39.944v-9.359H4v9.359Zm41.944-10.359V44.07a1 1 0 0 1-1 1H3a1 1 0 0 1-1-1V32.711a1 1 0 0 1 1-1h41.944a1 1 0 0 1 1 1ZM4 28.214h39.944v-9.359H4v9.359Zm41.944-10.359v11.36a1 1 0 0 1-1 1H3a1 1 0 0 1-1-1v-11.36a1 1 0 0 1 1-1h41.944a1 1 0 0 1 1 1ZM4 13.359h39.944V4H4v9.359ZM45.944 3v11.359a1 1 0 0 1-1 1H3a1 1 0 0 1-1-1V3a1 1 0 0 1 1-1h41.944a1 1 0 0 1 1 1Zm-6.545 35.417c0 .856.08 1.476.241 1.861.161.385.418.576.771.576.352 0 .609-.191.77-.576.161-.385.241-1.005.241-1.861 0-.851-.08-1.468-.241-1.853-.161-.385-.418-.577-.77-.577-.353 0-.61.192-.771.577-.161.385-.241 1.002-.241 1.853Zm-.413 2.341c-.325-.536-.487-1.316-.487-2.341 0-1.026.162-1.805.487-2.338.325-.533.8-.8 1.425-.8s1.1.267 1.424.8c.326.533.488 1.312.488 2.338 0 1.031-.162 1.813-.488 2.345-.324.534-.799.8-1.424.8-.625 0-1.1-.267-1.425-.804Zm-1.879.778a.544.544 0 0 0 .403-.153.547.547 0 0 0 .154-.406.549.549 0 0 0-.154-.406.54.54 0 0 0-.403-.153.541.541 0 0 0-.404.153.548.548 0 0 0-.153.406c0 .169.051.305.153.406a.545.545 0 0 0 .404.153Zm-1.523-.813h-2.525c.718-.874 1.226-1.521 1.523-1.944.296-.422.501-.776.612-1.062a2.28 2.28 0 0 0 .168-.83c0-.506-.134-.901-.401-1.184-.265-.282-.636-.424-1.112-.424-.273 0-.539.046-.799.136-.259.09-.529.234-.807.432v.744c.587-.374 1.073-.56 1.457-.56.502 0 .752.303.752.909 0 .274-.072.562-.213.865-.144.303-.378.683-.706 1.14a44.903 44.903 0 0 1-1.43 1.849v.655h3.481v-.726Zm-5.086.813a.548.548 0 0 0 .404-.153.55.55 0 0 0 .153-.406.552.552 0 0 0-.153-.406.544.544 0 0 0-.404-.153.543.543 0 0 0-.404.153.548.548 0 0 0-.153.406c0 .169.051.305.153.406a.547.547 0 0 0 .404.153Zm-4.243-2.752c0 .723.082 1.251.247 1.586.164.335.421.502.774.502.589 0 .883-.41.883-1.232 0-.379-.077-.669-.233-.87-.154-.2-.383-.302-.686-.302-.322 0-.65.082-.985.246v.07Zm-.413 2.057c-.306-.48-.459-1.221-.459-2.223 0-1.078.185-1.904.553-2.478.368-.574.892-.861 1.572-.861a2.645 2.645 0 0 1 1.198.289v.638a2.587 2.587 0 0 0-.529-.17 2.574 2.574 0 0 0-.557-.067c-.439 0-.767.174-.984.521-.217.347-.341.898-.371 1.656.396-.233.805-.35 1.226-.35.469 0 .845.164 1.127.49.282.326.423.76.423 1.302 0 .606-.163 1.086-.483 1.441-.322.355-.759.533-1.308.533-.632 0-1.101-.24-1.408-.721Zm-3.207.608h.882v-6.056h-.807l-1.458.83v.717l1.383-.656v5.165Zm-3.258.087a.55.55 0 0 0 .405-.153.55.55 0 0 0 .153-.406.552.552 0 0 0-.153-.406.547.547 0 0 0-.405-.153.542.542 0 0 0-.403.153.548.548 0 0 0-.153.406c0 .169.051.305.153.406a.546.546 0 0 0 .403.153Zm-1.522-.813h-2.524c.717-.874 1.225-1.521 1.521-1.944.298-.422.502-.776.613-1.062a2.26 2.26 0 0 0 .168-.83c0-.506-.133-.901-.4-1.184-.266-.282-.637-.424-1.112-.424-.274 0-.539.046-.799.136-.261.09-.529.234-.808.432v.744c.587-.374 1.073-.56 1.457-.56.502 0 .752.303.752.909 0 .274-.071.562-.213.865-.143.303-.378.683-.706 1.14a44.714 44.714 0 0 1-1.429 1.849v.655h3.48v-.726Zm-7.426.726h.91l1.941-5.409v-.647H9.734v.725h2.664l-1.969 5.331Zm-3.425 0h.882v-6.056h-.807l-1.458.83v.717l1.383-.656v5.165Zm32.395-18.212c0 .856.08 1.478.241 1.862.161.384.418.576.771.576.352 0 .609-.192.77-.576.161-.384.241-1.006.241-1.862 0-.85-.08-1.468-.241-1.852-.161-.384-.418-.577-.77-.577-.353 0-.61.193-.771.577-.161.384-.241 1.002-.241 1.852Zm-.413 2.343c-.325-.536-.487-1.317-.487-2.343 0-1.024.162-1.804.487-2.337.325-.533.8-.8 1.425-.8s1.1.267 1.424.8c.326.533.488 1.313.488 2.337 0 1.031-.162 1.813-.488 2.347-.324.533-.799.799-1.424.799-.625 0-1.1-.267-1.425-.803Zm-1.879.777a.544.544 0 0 0 .403-.153.549.549 0 0 0 .154-.406.553.553 0 0 0-.154-.407.548.548 0 0 0-.403-.152.548.548 0 0 0-.404.152.552.552 0 0 0-.153.407c0 .169.051.304.153.406a.545.545 0 0 0 .404.153Zm-3.352-.087h.882v-6.056h-.807l-1.457.831v.715l1.382-.655v5.165Zm-3.257.087a.548.548 0 0 0 .404-.153.552.552 0 0 0 .153-.406.556.556 0 0 0-.153-.407.552.552 0 0 0-.404-.152.55.55 0 0 0-.404.152.552.552 0 0 0-.153.407c0 .169.051.304.153.406a.547.547 0 0 0 .404.153Zm-4.243-2.752c0 .722.082 1.251.247 1.586.164.335.421.502.774.502.589 0 .883-.41.883-1.231 0-.379-.077-.669-.233-.871-.154-.201-.383-.301-.686-.301-.322 0-.65.082-.985.245v.07Zm-.413 2.058c-.306-.481-.459-1.222-.459-2.225 0-1.077.185-1.903.553-2.477.368-.574.892-.861 1.572-.861a2.696 2.696 0 0 1 1.198.289v.638a2.716 2.716 0 0 0-.529-.171 2.565 2.565 0 0 0-.557-.065c-.439 0-.767.173-.984.52-.217.346-.341.899-.371 1.655a2.397 2.397 0 0 1 1.226-.349c.469 0 .845.163 1.127.489.282.327.423.761.423 1.303 0 .605-.163 1.086-.483 1.441-.322.356-.759.533-1.308.533-.632 0-1.101-.24-1.408-.72Zm-3.207.607h.882v-6.056h-.807l-1.458.831v.715l1.383-.655v5.165Zm-3.258.087a.55.55 0 0 0 .405-.153.552.552 0 0 0 .153-.406.556.556 0 0 0-.153-.407.554.554 0 0 0-.405-.152.55.55 0 0 0-.403.152.552.552 0 0 0-.153.407c0 .169.051.304.153.406a.546.546 0 0 0 .403.153Zm-1.522-.812h-2.524c.717-.874 1.225-1.523 1.521-1.945.298-.422.502-.776.613-1.061.112-.286.168-.563.168-.831 0-.506-.133-.901-.4-1.184-.266-.282-.637-.424-1.112-.424-.274 0-.539.045-.799.136-.261.09-.529.234-.808.433v.742c.587-.372 1.073-.559 1.457-.559.502 0 .752.303.752.908 0 .275-.071.563-.213.866-.143.303-.378.683-.706 1.14a44.043 44.043 0 0 1-1.429 1.849v.655h3.48v-.725Zm-7.426.725h.91l1.941-5.409v-.647H9.734v.725h2.664l-1.969 5.331Zm-3.425 0h.882v-6.056h-.807l-1.458.831v.715l1.383-.655v5.165ZM39.399 8.917c0 .856.08 1.477.241 1.862.161.384.418.576.771.576.352 0 .609-.192.77-.576.161-.385.241-1.006.241-1.862 0-.85-.08-1.468-.241-1.852-.161-.385-.418-.577-.77-.577-.353 0-.61.192-.771.577-.161.384-.241 1.002-.241 1.852Zm-.413 2.342c-.325-.536-.487-1.316-.487-2.342 0-1.025.162-1.804.487-2.337.325-.533.8-.8 1.425-.8s1.1.267 1.424.8c.326.533.488 1.312.488 2.337 0 1.031-.162 1.813-.488 2.346-.324.534-.799.8-1.424.8-.625 0-1.1-.268-1.425-.804Zm-1.879.778a.541.541 0 0 0 .403-.154.547.547 0 0 0 .154-.406.55.55 0 0 0-.154-.406.544.544 0 0 0-.403-.152.544.544 0 0 0-.404.152.55.55 0 0 0-.153.406c0 .169.051.305.153.406a.542.542 0 0 0 .404.154Zm-4.316-3.12c0 .856.08 1.477.24 1.862.162.384.418.576.77.576.353 0 .611-.192.771-.576.162-.385.241-1.006.241-1.862 0-.85-.079-1.468-.241-1.852-.16-.385-.418-.577-.771-.577-.352 0-.608.192-.77.577-.16.384-.24 1.002-.24 1.852Zm-.414 2.342c-.325-.536-.487-1.316-.487-2.342 0-1.025.162-1.804.487-2.337.326-.533.8-.8 1.424-.8.626 0 1.101.267 1.425.8.326.533.488 1.312.488 2.337 0 1.031-.162 1.813-.488 2.346-.324.534-.799.8-1.425.8-.624 0-1.098-.268-1.424-.804Zm-1.879.778a.545.545 0 0 0 .404-.154.55.55 0 0 0 .153-.406.554.554 0 0 0-.153-.406.548.548 0 0 0-.404-.152.546.546 0 0 0-.404.152.55.55 0 0 0-.153.406c0 .169.051.305.153.406a.543.543 0 0 0 .404.154Zm-4.243-2.753c0 .723.082 1.252.247 1.587.164.335.421.502.774.502.589 0 .883-.411.883-1.233 0-.379-.077-.668-.233-.869-.154-.201-.383-.302-.686-.302-.322 0-.65.082-.985.246v.069Zm-.413 2.058c-.306-.481-.459-1.222-.459-2.224 0-1.077.185-1.903.553-2.478.368-.573.892-.86 1.572-.86.21 0 .423.026.637.078.213.053.4.123.561.21v.639a2.65 2.65 0 0 0-.529-.171 2.57 2.57 0 0 0-.557-.066c-.439 0-.767.173-.984.521-.217.346-.341.898-.371 1.655a2.397 2.397 0 0 1 1.226-.349c.469 0 .845.163 1.127.489.282.326.423.761.423 1.303 0 .605-.163 1.085-.483 1.441-.322.355-.759.533-1.308.533-.632 0-1.101-.24-1.408-.721Zm-3.207.608h.882V5.893h-.807l-1.458.83v.717l1.383-.655v5.165Zm-3.258.087a.547.547 0 0 0 .405-.154.55.55 0 0 0 .153-.406.554.554 0 0 0-.153-.406.55.55 0 0 0-.405-.152.545.545 0 0 0-.403.152.55.55 0 0 0-.153.406c0 .169.051.305.153.406a.543.543 0 0 0 .403.154Zm-1.522-.813h-2.524c.717-.874 1.225-1.522 1.521-1.944.298-.422.502-.776.613-1.062.112-.286.168-.562.168-.831 0-.505-.133-.9-.4-1.183-.266-.282-.637-.424-1.112-.424-.274 0-.539.045-.799.136-.261.09-.529.234-.808.432v.743c.587-.373 1.073-.559 1.457-.559.502 0 .752.303.752.908 0 .275-.071.563-.213.865-.143.303-.378.684-.706 1.141a44.136 44.136 0 0 1-1.429 1.848v.656h3.48v-.726Zm-7.426.726h.91l1.941-5.409v-.648H9.734v.726h2.664l-1.969 5.331ZM7.004 6.785l-1.383.655v-.717l1.458-.83h.807v6.057h-.882V6.785Z"></path></g></svg></svg></g></svg></g></g><g><g id="c33e100e-be92-4938-ada3-598cb113d7f6"><svg x="1616" y="3136" overflow="visible"><g transform="scale(1.4131949617798671) matrix(0.707 -0.409 0.707 0.409 0 0)"><circle cx="0" cy="0" fill="transparent" r="31"></circle><svg width="48" height="48" x="-24" y="-24" style="fill: rgb(255, 255, 255);"><svg xmlns="http://www.w3.org/2000/svg" width="48" height="48" viewBox="0 0 48 48"><g fill="none" fill-rule="evenodd"><path fill="#4D27AA" d="M4 43.07h39.944v-9.359H4v9.359Zm41.944-10.359V44.07a1 1 0 0 1-1 1H3a1 1 0 0 1-1-1V32.711a1 1 0 0 1 1-1h41.944a1 1 0 0 1 1 1ZM4 28.214h39.944v-9.359H4v9.359Zm41.944-10.359v11.36a1 1 0 0 1-1 1H3a1 1 0 0 1-1-1v-11.36a1 1 0 0 1 1-1h41.944a1 1 0 0 1 1 1ZM4 13.359h39.944V4H4v9.359ZM45.944 3v11.359a1 1 0 0 1-1 1H3a1 1 0 0 1-1-1V3a1 1 0 0 1 1-1h41.944a1 1 0 0 1 1 1Zm-6.545 35.417c0 .856.08 1.476.241 1.861.161.385.418.576.771.576.352 0 .609-.191.77-.576.161-.385.241-1.005.241-1.861 0-.851-.08-1.468-.241-1.853-.161-.385-.418-.577-.77-.577-.353 0-.61.192-.771.577-.161.385-.241 1.002-.241 1.853Zm-.413 2.341c-.325-.536-.487-1.316-.487-2.341 0-1.026.162-1.805.487-2.338.325-.533.8-.8 1.425-.8s1.1.267 1.424.8c.326.533.488 1.312.488 2.338 0 1.031-.162 1.813-.488 2.345-.324.534-.799.8-1.424.8-.625 0-1.1-.267-1.425-.804Zm-1.879.778a.544.544 0 0 0 .403-.153.547.547 0 0 0 .154-.406.549.549 0 0 0-.154-.406.54.54 0 0 0-.403-.153.541.541 0 0 0-.404.153.548.548 0 0 0-.153.406c0 .169.051.305.153.406a.545.545 0 0 0 .404.153Zm-1.523-.813h-2.525c.718-.874 1.226-1.521 1.523-1.944.296-.422.501-.776.612-1.062a2.28 2.28 0 0 0 .168-.83c0-.506-.134-.901-.401-1.184-.265-.282-.636-.424-1.112-.424-.273 0-.539.046-.799.136-.259.09-.529.234-.807.432v.744c.587-.374 1.073-.56 1.457-.56.502 0 .752.303.752.909 0 .274-.072.562-.213.865-.144.303-.378.683-.706 1.14a44.903 44.903 0 0 1-1.43 1.849v.655h3.481v-.726Zm-5.086.813a.548.548 0 0 0 .404-.153.55.55 0 0 0 .153-.406.552.552 0 0 0-.153-.406.544.544 0 0 0-.404-.153.543.543 0 0 0-.404.153.548.548 0 0 0-.153.406c0 .169.051.305.153.406a.547.547 0 0 0 .404.153Zm-4.243-2.752c0 .723.082 1.251.247 1.586.164.335.421.502.774.502.589 0 .883-.41.883-1.232 0-.379-.077-.669-.233-.87-.154-.2-.383-.302-.686-.302-.322 0-.65.082-.985.246v.07Zm-.413 2.057c-.306-.48-.459-1.221-.459-2.223 0-1.078.185-1.904.553-2.478.368-.574.892-.861 1.572-.861a2.645 2.645 0 0 1 1.198.289v.638a2.587 2.587 0 0 0-.529-.17 2.574 2.574 0 0 0-.557-.067c-.439 0-.767.174-.984.521-.217.347-.341.898-.371 1.656.396-.233.805-.35 1.226-.35.469 0 .845.164 1.127.49.282.326.423.76.423 1.302 0 .606-.163 1.086-.483 1.441-.322.355-.759.533-1.308.533-.632 0-1.101-.24-1.408-.721Zm-3.207.608h.882v-6.056h-.807l-1.458.83v.717l1.383-.656v5.165Zm-3.258.087a.55.55 0 0 0 .405-.153.55.55 0 0 0 .153-.406.552.552 0 0 0-.153-.406.547.547 0 0 0-.405-.153.542.542 0 0 0-.403.153.548.548 0 0 0-.153.406c0 .169.051.305.153.406a.546.546 0 0 0 .403.153Zm-1.522-.813h-2.524c.717-.874 1.225-1.521 1.521-1.944.298-.422.502-.776.613-1.062a2.26 2.26 0 0 0 .168-.83c0-.506-.133-.901-.4-1.184-.266-.282-.637-.424-1.112-.424-.274 0-.539.046-.799.136-.261.09-.529.234-.808.432v.744c.587-.374 1.073-.56 1.457-.56.502 0 .752.303.752.909 0 .274-.071.562-.213.865-.143.303-.378.683-.706 1.14a44.714 44.714 0 0 1-1.429 1.849v.655h3.48v-.726Zm-7.426.726h.91l1.941-5.409v-.647H9.734v.725h2.664l-1.969 5.331Zm-3.425 0h.882v-6.056h-.807l-1.458.83v.717l1.383-.656v5.165Zm32.395-18.212c0 .856.08 1.478.241 1.862.161.384.418.576.771.576.352 0 .609-.192.77-.576.161-.384.241-1.006.241-1.862 0-.85-.08-1.468-.241-1.852-.161-.384-.418-.577-.77-.577-.353 0-.61.193-.771.577-.161.384-.241 1.002-.241 1.852Zm-.413 2.343c-.325-.536-.487-1.317-.487-2.343 0-1.024.162-1.804.487-2.337.325-.533.8-.8 1.425-.8s1.1.267 1.424.8c.326.533.488 1.313.488 2.337 0 1.031-.162 1.813-.488 2.347-.324.533-.799.799-1.424.799-.625 0-1.1-.267-1.425-.803Zm-1.879.777a.544.544 0 0 0 .403-.153.549.549 0 0 0 .154-.406.553.553 0 0 0-.154-.407.548.548 0 0 0-.403-.152.548.548 0 0 0-.404.152.552.552 0 0 0-.153.407c0 .169.051.304.153.406a.545.545 0 0 0 .404.153Zm-3.352-.087h.882v-6.056h-.807l-1.457.831v.715l1.382-.655v5.165Zm-3.257.087a.548.548 0 0 0 .404-.153.552.552 0 0 0 .153-.406.556.556 0 0 0-.153-.407.552.552 0 0 0-.404-.152.55.55 0 0 0-.404.152.552.552 0 0 0-.153.407c0 .169.051.304.153.406a.547.547 0 0 0 .404.153Zm-4.243-2.752c0 .722.082 1.251.247 1.586.164.335.421.502.774.502.589 0 .883-.41.883-1.231 0-.379-.077-.669-.233-.871-.154-.201-.383-.301-.686-.301-.322 0-.65.082-.985.245v.07Zm-.413 2.058c-.306-.481-.459-1.222-.459-2.225 0-1.077.185-1.903.553-2.477.368-.574.892-.861 1.572-.861a2.696 2.696 0 0 1 1.198.289v.638a2.716 2.716 0 0 0-.529-.171 2.565 2.565 0 0 0-.557-.065c-.439 0-.767.173-.984.52-.217.346-.341.899-.371 1.655a2.397 2.397 0 0 1 1.226-.349c.469 0 .845.163 1.127.489.282.327.423.761.423 1.303 0 .605-.163 1.086-.483 1.441-.322.356-.759.533-1.308.533-.632 0-1.101-.24-1.408-.72Zm-3.207.607h.882v-6.056h-.807l-1.458.831v.715l1.383-.655v5.165Zm-3.258.087a.55.55 0 0 0 .405-.153.552.552 0 0 0 .153-.406.556.556 0 0 0-.153-.407.554.554 0 0 0-.405-.152.55.55 0 0 0-.403.152.552.552 0 0 0-.153.407c0 .169.051.304.153.406a.546.546 0 0 0 .403.153Zm-1.522-.812h-2.524c.717-.874 1.225-1.523 1.521-1.945.298-.422.502-.776.613-1.061.112-.286.168-.563.168-.831 0-.506-.133-.901-.4-1.184-.266-.282-.637-.424-1.112-.424-.274 0-.539.045-.799.136-.261.09-.529.234-.808.433v.742c.587-.372 1.073-.559 1.457-.559.502 0 .752.303.752.908 0 .275-.071.563-.213.866-.143.303-.378.683-.706 1.14a44.043 44.043 0 0 1-1.429 1.849v.655h3.48v-.725Zm-7.426.725h.91l1.941-5.409v-.647H9.734v.725h2.664l-1.969 5.331Zm-3.425 0h.882v-6.056h-.807l-1.458.831v.715l1.383-.655v5.165ZM39.399 8.917c0 .856.08 1.477.241 1.862.161.384.418.576.771.576.352 0 .609-.192.77-.576.161-.385.241-1.006.241-1.862 0-.85-.08-1.468-.241-1.852-.161-.385-.418-.577-.77-.577-.353 0-.61.192-.771.577-.161.384-.241 1.002-.241 1.852Zm-.413 2.342c-.325-.536-.487-1.316-.487-2.342 0-1.025.162-1.804.487-2.337.325-.533.8-.8 1.425-.8s1.1.267 1.424.8c.326.533.488 1.312.488 2.337 0 1.031-.162 1.813-.488 2.346-.324.534-.799.8-1.424.8-.625 0-1.1-.268-1.425-.804Zm-1.879.778a.541.541 0 0 0 .403-.154.547.547 0 0 0 .154-.406.55.55 0 0 0-.154-.406.544.544 0 0 0-.403-.152.544.544 0 0 0-.404.152.55.55 0 0 0-.153.406c0 .169.051.305.153.406a.542.542 0 0 0 .404.154Zm-4.316-3.12c0 .856.08 1.477.24 1.862.162.384.418.576.77.576.353 0 .611-.192.771-.576.162-.385.241-1.006.241-1.862 0-.85-.079-1.468-.241-1.852-.16-.385-.418-.577-.771-.577-.352 0-.608.192-.77.577-.16.384-.24 1.002-.24 1.852Zm-.414 2.342c-.325-.536-.487-1.316-.487-2.342 0-1.025.162-1.804.487-2.337.326-.533.8-.8 1.424-.8.626 0 1.101.267 1.425.8.326.533.488 1.312.488 2.337 0 1.031-.162 1.813-.488 2.346-.324.534-.799.8-1.425.8-.624 0-1.098-.268-1.424-.804Zm-1.879.778a.545.545 0 0 0 .404-.154.55.55 0 0 0 .153-.406.554.554 0 0 0-.153-.406.548.548 0 0 0-.404-.152.546.546 0 0 0-.404.152.55.55 0 0 0-.153.406c0 .169.051.305.153.406a.543.543 0 0 0 .404.154Zm-4.243-2.753c0 .723.082 1.252.247 1.587.164.335.421.502.774.502.589 0 .883-.411.883-1.233 0-.379-.077-.668-.233-.869-.154-.201-.383-.302-.686-.302-.322 0-.65.082-.985.246v.069Zm-.413 2.058c-.306-.481-.459-1.222-.459-2.224 0-1.077.185-1.903.553-2.478.368-.573.892-.86 1.572-.86.21 0 .423.026.637.078.213.053.4.123.561.21v.639a2.65 2.65 0 0 0-.529-.171 2.57 2.57 0 0 0-.557-.066c-.439 0-.767.173-.984.521-.217.346-.341.898-.371 1.655a2.397 2.397 0 0 1 1.226-.349c.469 0 .845.163 1.127.489.282.326.423.761.423 1.303 0 .605-.163 1.085-.483 1.441-.322.355-.759.533-1.308.533-.632 0-1.101-.24-1.408-.721Zm-3.207.608h.882V5.893h-.807l-1.458.83v.717l1.383-.655v5.165Zm-3.258.087a.547.547 0 0 0 .405-.154.55.55 0 0 0 .153-.406.554.554 0 0 0-.153-.406.55.55 0 0 0-.405-.152.545.545 0 0 0-.403.152.55.55 0 0 0-.153.406c0 .169.051.305.153.406a.543.543 0 0 0 .403.154Zm-1.522-.813h-2.524c.717-.874 1.225-1.522 1.521-1.944.298-.422.502-.776.613-1.062.112-.286.168-.562.168-.831 0-.505-.133-.9-.4-1.183-.266-.282-.637-.424-1.112-.424-.274 0-.539.045-.799.136-.261.09-.529.234-.808.432v.743c.587-.373 1.073-.559 1.457-.559.502 0 .752.303.752.908 0 .275-.071.563-.213.865-.143.303-.378.684-.706 1.141a44.136 44.136 0 0 1-1.429 1.848v.656h3.48v-.726Zm-7.426.726h.91l1.941-5.409v-.648H9.734v.726h2.664l-1.969 5.331ZM7.004 6.785l-1.383.655v-.717l1.458-.83h.807v6.057h-.882V6.785Z"></path></g></svg></svg></g></svg></g></g></g><g pointer-events="auto"><g><g id="f3030bfd-00e5-49b2-8a8a-a492c1c2d9f6"><svg x="-576" y="537" overflow="visible"><text stroke="#ffffff" stroke-width="4" font-family="Open Sans" y="37.64" font-size="26pt" fill="#4286c5" font-weight="bold" transform="matrix(0.707 -0.409 0.707 0.409 0 0)" xml:space="preserve"><tspan x="8" dy="0">ec2_natgateway-server</tspan></text><text font-family="Open Sans" y="37.64" font-size="26pt" fill="#4286c5" font-weight="bold" transform="matrix(0.707 -0.409 0.707 0.409 0 0)" xml:space="preserve"><tspan x="8" dy="0">ec2_natgateway-server</tspan></text></svg></g></g><g><g id="042acd58-87ae-4ad3-bee0-0e55d1ec2106" transform="translate(0 0)"><svg x="2144" y="685" overflow="visible"><text stroke="#ffffff" stroke-width="4" font-family="Open Sans" y="37.64" font-size="26pt" fill="#e91e63" font-weight="bold" transform="matrix(0.707 -0.409 0.707 0.409 0 0)" xml:space="preserve"><tspan x="8" dy="0">(10.0.0.128/27)</tspan></text><text font-family="Open Sans" y="37.64" font-size="26pt" fill="#e91e63" font-weight="bold" transform="matrix(0.707 -0.409 0.707 0.409 0 0)" xml:space="preserve"><tspan x="8" dy="0">(10.0.0.128/27)</tspan></text></svg></g></g><g><g id="d46fafb2-6df0-407f-a275-4873a1310f5a" transform="translate(0 0)"><svg x="224" y="685" overflow="visible"><text stroke="#ffffff" stroke-width="4" font-family="Open Sans" y="37.64" font-size="26pt" fill="#009688" font-weight="bold" transform="matrix(0.707 -0.409 0.707 0.409 0 0)" xml:space="preserve"><tspan x="8" dy="0">(10.0.0.32/27)</tspan></text><text font-family="Open Sans" y="37.64" font-size="26pt" fill="#009688" font-weight="bold" transform="matrix(0.707 -0.409 0.707 0.409 0 0)" xml:space="preserve"><tspan x="8" dy="0">(10.0.0.32/27)</tspan></text></svg></g></g><g><g id="8abf8b49-a9df-4e4f-8d1c-485dcf64d697" transform="translate(0 0)"><svg x="-1072" y="398" overflow="visible"><text stroke="#ffffff" stroke-width="4" font-family="Open Sans" y="33.08" font-size="22pt" fill="#f44336" font-weight="bold" transform="matrix(0.707, -0.409, 0, 0.816, 0, 0)" xml:space="preserve"><tspan x="8" dy="0">                                     INBOUND</tspan><tspan x="8" dy="1.1em">ICMP | HTTP/S  10.0.0.96/27   (subnet_private_azone_a)</tspan><tspan x="8" dy="1.1em">ICMP | HTTP/S  10.0.0.128/27 (subnet_private_azone_b)</tspan><tspan x="8" dy="1.1em">ICMP | HTTP/S  10.0.0.160/27 (subnet_private_azone_c)</tspan><tspan x="8" dy="1.1em"> </tspan><tspan x="8" dy="1.1em"> </tspan><tspan x="8" dy="1.1em">                                    OUTBOUND</tspan><tspan x="8" dy="1.1em">              ALL                   0.0.0.0/0</tspan></text><text font-family="Open Sans" y="33.08" font-size="22pt" fill="#f44336" font-weight="bold" transform="matrix(0.707, -0.409, 0, 0.816, 0, 0)" xml:space="preserve"><tspan x="8" dy="0">                                     INBOUND</tspan><tspan x="8" dy="1.1em">ICMP | HTTP/S  10.0.0.96/27   (subnet_private_azone_a)</tspan><tspan x="8" dy="1.1em">ICMP | HTTP/S  10.0.0.128/27 (subnet_private_azone_b)</tspan><tspan x="8" dy="1.1em">ICMP | HTTP/S  10.0.0.160/27 (subnet_private_azone_c)</tspan><tspan x="8" dy="1.1em"> </tspan><tspan x="8" dy="1.1em"> </tspan><tspan x="8" dy="1.1em">                                    OUTBOUND</tspan><tspan x="8" dy="1.1em">              ALL                   0.0.0.0/0</tspan></text></svg></g></g><g><g id="5f61fb77-e203-49ae-990d-38a1688cb34e" transform="translate(0 0)"><svg x="1200" y="120" overflow="visible"><text stroke="#ffffff" stroke-width="4" font-family="Open Sans" y="37.64" font-size="26pt" fill="#009688" font-weight="bold" transform="matrix(0.707 -0.409 0.707 0.409 0 0)" xml:space="preserve"><tspan x="8" dy="0">(10.0.0.64/27)</tspan></text><text font-family="Open Sans" y="37.64" font-size="26pt" fill="#009688" font-weight="bold" transform="matrix(0.707 -0.409 0.707 0.409 0 0)" xml:space="preserve"><tspan x="8" dy="0">(10.0.0.64/27)</tspan></text></svg></g></g><g><g id="db67c07e-1407-4f26-8e00-7a9783e0a7c8"><svg x="1200" y="-1045" overflow="visible"><text stroke="#ffffff" stroke-width="4" font-family="Open Sans" y="37.64" font-size="26pt" fill="#000000" font-weight="bold" transform="matrix(0.707 -0.409 0.707 0.409 0 0)" xml:space="preserve"><tspan x="8" dy="0">igw</tspan></text><text font-family="Open Sans" y="37.64" font-size="26pt" fill="#000000" font-weight="bold" transform="matrix(0.707 -0.409 0.707 0.409 0 0)" xml:space="preserve"><tspan x="8" dy="0">igw</tspan></text></svg></g></g><g><g id="917f200c-7b39-4e89-977d-34d4eb720b7b" transform="translate(0 0)"><svg x="992" y="-1332" overflow="visible"><text stroke="#ffffff" stroke-width="4" font-family="Open Sans" y="39.92" font-size="28pt" fill="#9c27b0" font-weight="bold" transform="matrix(0.707 -0.409 0.707 0.409 0 0)" xml:space="preserve"><tspan x="8" dy="0"> (10.0.0.0/24)</tspan></text><text font-family="Open Sans" y="39.92" font-size="28pt" fill="#9c27b0" font-weight="bold" transform="matrix(0.707 -0.409 0.707 0.409 0 0)" xml:space="preserve"><tspan x="8" dy="0"> (10.0.0.0/24)</tspan></text></svg></g></g><g><g id="d068a8c7-aea5-4d25-a84c-958d98117944" transform="translate(0 0)"><svg x="3088" y="139" overflow="visible"><text stroke="#ffffff" stroke-width="4" font-family="Open Sans" y="37.64" font-size="26pt" fill="#e91e63" font-weight="bold" transform="matrix(0.707 -0.409 0.707 0.409 0 0)" xml:space="preserve"><tspan x="8" dy="0">(10.0.0.160/27)</tspan></text><text font-family="Open Sans" y="37.64" font-size="26pt" fill="#e91e63" font-weight="bold" transform="matrix(0.707 -0.409 0.707 0.409 0 0)" xml:space="preserve"><tspan x="8" dy="0">(10.0.0.160/27)</tspan></text></svg></g></g><g><g id="d0ccd66d-802f-452b-bdf2-3163acf0233a" transform="translate(0 0)"><svg x="976" y="453" overflow="visible"><text stroke="#ffffff" stroke-width="4" font-family="Open Sans" y="33.08" font-size="22pt" fill="#4caf50" font-weight="bold" transform="matrix(0.707, -0.409, 0, 0.816, 0, 0)" xml:space="preserve"><tspan x="8" dy="0">                                     INBOUND</tspan><tspan x="8" dy="1.1em">ICMP | HTTP/S | SSH | RDP 0.0.0.0/0 (internet)</tspan><tspan x="8" dy="1.1em"> </tspan><tspan x="8" dy="1.1em"> </tspan><tspan x="8" dy="1.1em">                                    OUTBOUND</tspan><tspan x="8" dy="1.1em">            ALL            0.0.0.0/0                  (internet)</tspan></text><text font-family="Open Sans" y="33.08" font-size="22pt" fill="#4caf50" font-weight="bold" transform="matrix(0.707, -0.409, 0, 0.816, 0, 0)" xml:space="preserve"><tspan x="8" dy="0">                                     INBOUND</tspan><tspan x="8" dy="1.1em">ICMP | HTTP/S | SSH | RDP 0.0.0.0/0 (internet)</tspan><tspan x="8" dy="1.1em"> </tspan><tspan x="8" dy="1.1em"> </tspan><tspan x="8" dy="1.1em">                                    OUTBOUND</tspan><tspan x="8" dy="1.1em">            ALL            0.0.0.0/0                  (internet)</tspan></text></svg></g></g><g><g id="da94b96a-ba49-491a-8a9f-e4b949adec70" transform="translate(0 0)"><svg x="1200" y="1230" overflow="visible"><text stroke="#ffffff" stroke-width="4" font-family="Open Sans" y="37.64" font-size="26pt" fill="#e91e63" font-weight="bold" transform="matrix(0.707 -0.409 0.707 0.409 0 0)" xml:space="preserve"><tspan x="8" dy="0">(10.0.0.96/27)</tspan></text><text font-family="Open Sans" y="37.64" font-size="26pt" fill="#e91e63" font-weight="bold" transform="matrix(0.707 -0.409 0.707 0.409 0 0)" xml:space="preserve"><tspan x="8" dy="0">(10.0.0.96/27)</tspan></text></svg></g></g><g><g id="ec16c5f1-8731-4e79-8e5e-881ec5479b1e" transform="translate(0 0)"><svg x="-720" y="120" overflow="visible"><text stroke="#ffffff" stroke-width="4" font-family="Open Sans" y="37.64" font-size="26pt" fill="#607d8b" font-weight="bold" transform="matrix(0.707 -0.409 0.707 0.409 0 0)" xml:space="preserve"><tspan x="8" dy="0">(10.0.0.0/27)</tspan></text><text font-family="Open Sans" y="37.64" font-size="26pt" fill="#607d8b" font-weight="bold" transform="matrix(0.707 -0.409 0.707 0.409 0 0)" xml:space="preserve"><tspan x="8" dy="0">(10.0.0.0/27)</tspan></text></svg></g></g><g><g id="328e7f96-1e0a-499a-acb2-07c3f0bb2bde" transform="translate(0 0)"><svg x="1424" y="2211" overflow="visible"><text stroke="#000000" stroke-width="2" font-family="Open Sans" y="37.64" font-size="26pt" fill="#ffffff" font-weight="bold" transform="matrix(0.707 -0.409 0.707 0.409 0 0)" xml:space="preserve"><tspan x="8" dy="0">&lt;&lt; nacl_default &gt;&gt;</tspan><tspan x="8" dy="1.1em"> </tspan><tspan x="8" dy="1.1em">   INBOUND</tspan><tspan x="8" dy="1.1em">ALL    0.0.0.0/0</tspan><tspan x="8" dy="1.1em">  </tspan><tspan x="8" dy="1.1em">  OUTBOUND</tspan><tspan x="8" dy="1.1em">ALL    0.0.0.0/0 </tspan></text><text font-family="Open Sans" y="37.64" font-size="26pt" fill="#ffffff" font-weight="bold" transform="matrix(0.707 -0.409 0.707 0.409 0 0)" xml:space="preserve"><tspan x="8" dy="0">&lt;&lt; nacl_default &gt;&gt;</tspan><tspan x="8" dy="1.1em"> </tspan><tspan x="8" dy="1.1em">   INBOUND</tspan><tspan x="8" dy="1.1em">ALL    0.0.0.0/0</tspan><tspan x="8" dy="1.1em">  </tspan><tspan x="8" dy="1.1em">  OUTBOUND</tspan><tspan x="8" dy="1.1em">ALL    0.0.0.0/0 </tspan></text></svg></g></g><g><g id="b9ab706d-6736-41dc-b159-06aa684594e0" transform="translate(0 0)"><svg x="1136" y="2821" overflow="visible"><text stroke="#ffffff" stroke-width="4" font-family="Open Sans" y="39.92" font-size="28pt" fill="#607d8b" font-weight="bold" transform="matrix(0.707 -0.409 0.707 0.409 0 0)" xml:space="preserve"><tspan x="8" dy="0">&lt;&lt; rt_generic &gt;&gt;</tspan><tspan x="8" dy="1.1em"> </tspan><tspan x="8" dy="1.1em">    TARGET    |    DESTINATION</tspan><tspan x="8" dy="1.1em">       local         10.0.0.0/24 (vpc_a)</tspan><tspan x="8" dy="1.1em">        igw            0.0.0.0/0   (internet)</tspan></text><text font-family="Open Sans" y="39.92" font-size="28pt" fill="#607d8b" font-weight="bold" transform="matrix(0.707 -0.409 0.707 0.409 0 0)" xml:space="preserve"><tspan x="8" dy="0">&lt;&lt; rt_generic &gt;&gt;</tspan><tspan x="8" dy="1.1em"> </tspan><tspan x="8" dy="1.1em">    TARGET    |    DESTINATION</tspan><tspan x="8" dy="1.1em">       local         10.0.0.0/24 (vpc_a)</tspan><tspan x="8" dy="1.1em">        igw            0.0.0.0/0   (internet)</tspan></text></svg></g></g><g><g id="4420f5c8-1391-43ac-a275-ac13bbaa922f" transform="translate(0 0)"><svg x="1376" y="2960" overflow="visible"><text stroke="#ffffff" stroke-width="4" font-family="Open Sans" y="39.92" font-size="28pt" fill="#4caf50" font-weight="bold" transform="matrix(0.707 -0.409 0.707 0.409 0 0)" xml:space="preserve"><tspan x="8" dy="0">&lt;&lt; rt_default &gt;&gt;</tspan><tspan x="8" dy="1.1em"> </tspan><tspan x="8" dy="1.1em">    TARGET    |    DESTINATION</tspan><tspan x="8" dy="1.1em">       local         10.0.0.0/24 (vpc_a)</tspan><tspan x="8" dy="1.1em">        igw            0.0.0.0/0   (internet)</tspan></text><text font-family="Open Sans" y="39.92" font-size="28pt" fill="#4caf50" font-weight="bold" transform="matrix(0.707 -0.409 0.707 0.409 0 0)" xml:space="preserve"><tspan x="8" dy="0">&lt;&lt; rt_default &gt;&gt;</tspan><tspan x="8" dy="1.1em"> </tspan><tspan x="8" dy="1.1em">    TARGET    |    DESTINATION</tspan><tspan x="8" dy="1.1em">       local         10.0.0.0/24 (vpc_a)</tspan><tspan x="8" dy="1.1em">        igw            0.0.0.0/0   (internet)</tspan></text></svg></g></g><g><g id="0f962a58-33ca-4383-a0a4-f5474991c8e6" transform="translate(0 0)"><svg x="1616" y="3099" overflow="visible"><text stroke="#ffffff" stroke-width="4" font-family="Open Sans" y="39.92" font-size="28pt" fill="#e91e63" font-weight="bold" transform="matrix(0.707 -0.409 0.707 0.409 0 0)" xml:space="preserve"><tspan x="8" dy="0">&lt;&lt; rt_private &gt;&gt;</tspan><tspan x="8" dy="1.1em"> </tspan><tspan x="8" dy="1.1em">              TARGET               |      DESTINATION</tspan><tspan x="8" dy="1.1em">                local                      10.0.0.0/24 (vpc_a)</tspan><tspan x="8" dy="1.1em">ec2_natgateway-server     0.0.0.0/0   (internet)</tspan></text><text font-family="Open Sans" y="39.92" font-size="28pt" fill="#e91e63" font-weight="bold" transform="matrix(0.707 -0.409 0.707 0.409 0 0)" xml:space="preserve"><tspan x="8" dy="0">&lt;&lt; rt_private &gt;&gt;</tspan><tspan x="8" dy="1.1em"> </tspan><tspan x="8" dy="1.1em">              TARGET               |      DESTINATION</tspan><tspan x="8" dy="1.1em">                local                      10.0.0.0/24 (vpc_a)</tspan><tspan x="8" dy="1.1em">ec2_natgateway-server     0.0.0.0/0   (internet)</tspan></text></svg></g></g></g></g></svg>